<?xml version="1.0" standalone="no"?>
<!DOCTYPE svg PUBLIC "-//W3C//DTD SVG 20010904//EN"
 "http://www.w3.org/TR/2001/REC-SVG-20010904/DTD/svg10.dtd">
<svg version="1.0" xmlns="http://www.w3.org/2000/svg"
 width="1183.000000pt" height="1040.000000pt" viewBox="0 0 1183.000000 1040.000000"
 preserveAspectRatio="xMidYMid meet">
<metadata>
Created by potrace 1.16, written by Peter Selinger 2001-2019
</metadata>
<g transform="translate(0.000000,1040.000000) scale(0.100000,-0.100000)"
fill="#000000" stroke="none">
<path d="M0 5200 l0 -5200 956 2 955 3 78 150 c42 83 119 231 171 330 51 99
121 234 155 300 34 66 87 167 117 225 141 269 258 503 258 517 0 8 16 41 35
74 32 55 85 163 85 174 0 10 -22 5 -34 -8 -7 -7 -56 -77 -110 -157 -122 -183
-140 -205 -296 -370 -70 -74 -174 -187 -231 -250 -320 -356 -664 -730 -671
-730 -11 0 -10 43 3 76 5 16 31 51 57 79 26 28 75 82 109 121 34 38 105 114
158 169 161 167 335 355 430 465 143 166 365 440 365 451 0 11 -23 -6 -113
-84 -31 -27 -60 -46 -65 -43 -5 3 -9 -2 -9 -11 0 -10 -12 -26 -28 -38 -15 -11
-46 -40 -69 -65 -122 -133 -212 -220 -224 -215 -7 3 -11 1 -8 -4 8 -12 -19
-33 -29 -23 -5 4 -5 2 -2 -4 9 -15 -149 -168 -164 -158 -7 4 -9 3 -6 -3 9 -14
-90 -106 -105 -97 -6 4 -8 3 -4 -4 6 -11 -142 -144 -192 -172 -15 -8 -33 -23
-40 -33 -7 -9 -18 -15 -23 -12 -5 4 -9 -1 -9 -9 0 -9 -18 -27 -39 -40 -22 -14
-42 -30 -46 -36 -5 -8 -12 -7 -23 2 -15 11 -15 11 -4 -4 11 -13 11 -18 0 -27
-7 -5 -31 -25 -53 -43 -79 -66 -74 -65 -73 -10 0 47 2 51 50 88 93 71 111 83
121 77 6 -3 7 -1 4 4 -4 6 0 16 8 23 11 9 15 9 15 1 0 -7 5 -9 10 -6 6 4 8 10
5 14 -9 15 89 99 108 93 5 -1 6 2 3 7 -5 8 63 71 76 71 3 0 31 25 62 55 31 31
62 53 67 49 6 -3 3 -11 -7 -18 -15 -12 -14 -13 7 -10 13 1 26 3 28 3 2 1 -2 8
-9 16 -10 12 -10 18 0 30 7 8 16 13 20 10 5 -3 12 0 16 6 4 8 3 9 -4 5 -17
-11 -15 9 3 24 8 7 15 9 15 4 0 -4 6 0 13 11 11 14 16 15 22 5 6 -9 4 -11 -5
-5 -9 6 -11 4 -6 -4 6 -9 12 -9 25 3 10 9 23 16 29 16 6 0 14 4 17 10 7 11
-23 2 -43 -13 -8 -6 -12 -6 -12 1 0 14 26 33 34 24 4 -4 7 -2 6 3 -5 22 1 27
18 14 15 -13 16 -12 3 4 -12 15 -11 20 4 37 10 11 26 20 35 20 10 0 24 8 31
18 13 16 13 16 -6 2 -11 -8 -3 3 18 25 32 33 40 37 48 25 9 -12 10 -11 5 4 -5
14 29 54 150 177 87 87 161 156 166 153 5 -3 7 -2 6 3 -2 5 34 47 79 93 46 46
83 89 83 95 0 6 19 22 43 35 68 37 107 70 107 89 0 14 9 20 34 23 19 2 33 1
31 -3 -3 -3 1 -14 9 -24 12 -16 14 -16 45 0 18 9 30 19 27 22 -3 3 1 12 9 20
8 8 15 31 15 52 0 22 11 57 25 82 14 24 48 91 77 149 29 58 54 107 56 110 2 2
30 -5 63 -17 43 -16 59 -18 59 -9 0 11 -40 33 -90 50 -10 3 -8 5 5 5 11 1 31
8 44 17 19 14 22 23 18 54 -3 21 0 43 6 49 6 6 10 35 8 65 -1 31 3 64 11 78
24 43 62 78 84 78 16 0 33 16 60 57 47 71 50 74 98 71 29 -2 44 -10 59 -29 19
-27 19 -27 -3 -94 -17 -52 -21 -81 -17 -123 3 -31 1 -64 -5 -76 -14 -29 -136
-144 -159 -151 -23 -8 -33 -44 -25 -90 6 -31 -3 -55 -71 -186 -53 -103 -87
-159 -109 -176 -21 -15 -40 -44 -54 -83 -20 -53 -24 -58 -37 -44 -20 19 -84
46 -97 40 -6 -2 -4 -5 5 -5 9 -1 32 -14 51 -29 l36 -28 -23 -26 c-12 -14 -55
-88 -95 -165 -40 -76 -165 -307 -278 -513 -113 -206 -211 -391 -219 -410 -8
-19 -32 -62 -52 -95 -38 -60 -281 -510 -281 -520 0 -3 111 -5 248 -5 l247 1
-77 30 c-92 36 -132 71 -148 127 -23 89 13 161 105 207 53 27 70 30 150 30 80
0 97 -3 150 -30 68 -34 105 -80 105 -131 0 -67 -95 -100 -145 -49 -32 31 -32
59 0 91 l25 25 -35 14 c-88 38 -197 3 -203 -64 -5 -54 43 -92 163 -126 80 -23
152 -63 176 -97 17 -23 28 -28 63 -28 42 0 44 1 49 38 13 80 91 159 182 183
60 16 182 6 231 -19 60 -30 109 -90 125 -151 l13 -51 53 0 53 0 0 149 c0 161
0 161 -56 161 -21 0 -24 4 -24 40 l0 40 115 0 115 0 0 -125 c0 -69 3 -125 6
-125 3 0 15 12 27 26 49 63 166 82 247 41 53 -26 86 -71 107 -149 15 -53 19
-58 44 -58 25 0 29 6 43 53 32 109 120 172 244 176 89 3 141 -13 191 -56 43
-37 81 -105 81 -146 0 -27 1 -27 70 -27 l71 0 -3 68 -3 67 -37 3 c-37 3 -38 4
-38 43 l0 39 115 0 115 0 0 -52 0 -51 30 41 c37 51 76 72 135 72 82 0 123 -72
74 -134 -29 -37 -99 -37 -128 0 -11 14 -22 30 -24 37 -12 33 -77 -71 -77 -122
0 -8 78 -11 300 -10 l300 2 0 43 c0 56 -16 90 -50 106 -34 16 -118 12 -101 -5
15 -15 14 -69 -2 -91 -21 -28 -87 -32 -119 -6 -38 29 -37 69 2 114 44 50 111
70 216 64 73 -4 90 -8 126 -34 52 -37 78 -85 78 -146 l0 -48 95 0 96 0 -3 68
-3 67 -32 3 c-31 3 -33 6 -33 43 l0 39 110 0 110 0 0 -33 c0 -47 8 -50 38 -15
72 86 243 75 287 -18 8 -18 15 -59 15 -93 l0 -61 60 0 c55 0 60 2 60 23 1 67
79 160 163 192 64 24 195 17 253 -13 57 -29 110 -94 125 -153 l13 -49 2353 0
2353 0 0 5200 0 5200 -5915 0 -5915 0 0 -5200z m3725 -3165 c118 -271 122
-280 144 -283 16 -3 21 -11 21 -33 l0 -30 -117 3 -118 3 0 25 c0 17 6 26 20
28 31 6 37 16 26 45 -10 27 -12 27 -101 27 -88 0 -91 -1 -100 -26 -15 -37 -13
-42 18 -46 21 -2 27 -8 27 -28 0 -25 -2 -25 -87 -28 l-88 -3 0 31 c0 23 4 30
20 30 23 0 36 24 133 255 62 147 64 150 98 156 19 3 39 0 45 -5 6 -6 33 -60
59 -121z m1746 45 c2 -41 4 -80 6 -86 2 -6 19 4 37 22 30 30 40 34 87 34 48 0
55 -3 90 -39 26 -28 40 -55 48 -91 38 -177 -129 -312 -248 -199 l-24 23 -21
-27 c-14 -17 -31 -27 -49 -27 l-27 0 0 205 0 205 -25 6 c-18 4 -25 13 -25 30
0 22 4 23 68 26 37 2 70 1 74 -2 4 -3 8 -39 9 -80z m459 -126 l0 -204 25 0
c21 0 25 -5 25 -30 l0 -30 -105 0 -105 0 0 30 c0 25 4 30 24 30 13 0 27 7 30
16 3 9 6 85 6 171 l0 155 -30 11 c-20 8 -30 18 -30 33 0 11 2 23 4 25 2 2 38
3 80 1 l76 -4 0 -204z m-1760 78 c28 -13 36 -24 38 -50 4 -39 -12 -62 -42 -62
-36 0 -49 16 -48 54 1 32 -1 36 -24 36 -39 0 -64 -18 -64 -46 0 -21 9 -29 48
-45 26 -11 64 -27 85 -36 44 -19 59 -42 59 -89 0 -69 -63 -114 -158 -114 -106
1 -187 92 -120 135 18 12 29 13 51 5 25 -10 27 -14 22 -50 -5 -37 -3 -39 24
-45 33 -7 79 16 79 39 0 33 -15 46 -79 71 -90 34 -111 54 -111 109 0 33 6 48
28 68 35 33 45 36 117 37 38 1 73 -5 95 -17z m345 4 c55 -24 69 -56 75 -175 5
-101 6 -106 28 -109 17 -3 22 -10 22 -33 l0 -29 -64 0 c-55 0 -66 3 -71 19 -6
19 -7 19 -42 -5 -80 -54 -193 -6 -193 82 0 85 115 130 198 76 22 -14 22 -14
22 33 0 75 -22 105 -78 105 -29 0 -32 -2 -22 -19 22 -43 -22 -91 -71 -76 -53
17 -39 98 23 128 41 20 127 22 173 3z m313 -17 l3 -26 31 28 c24 23 39 29 75
29 39 0 51 -5 76 -32 l30 -33 33 33 c42 42 107 45 151 8 27 -24 28 -28 33
-148 5 -118 6 -123 28 -126 17 -3 22 -10 22 -33 l0 -29 -95 0 -95 0 0 30 c0
23 4 30 20 30 19 0 20 7 20 104 0 95 -2 106 -21 120 -51 35 -99 -28 -99 -131
0 -70 6 -93 26 -93 9 0 14 -11 14 -30 l0 -30 -90 0 -90 0 0 30 c0 23 4 30 20
30 19 0 20 7 20 103 0 86 -3 106 -17 119 -23 20 -53 15 -75 -13 -24 -29 -27
-209 -3 -209 10 0 15 -10 15 -30 l0 -30 -95 0 -95 0 0 30 c0 25 4 30 25 30
l25 0 0 115 c0 114 0 115 -25 121 -17 4 -25 13 -25 28 0 34 8 37 85 34 67 -3
70 -4 73 -29z m1469 5 c35 -26 73 -98 73 -141 l0 -32 -122 -3 -123 -3 3 -25
c6 -48 35 -75 85 -78 48 -3 74 13 102 62 15 26 48 11 39 -18 -28 -90 -142
-132 -239 -87 -22 10 -50 29 -61 42 -71 79 -50 230 40 285 35 21 50 24 108 22
48 -3 75 -9 95 -24z m401 -17 l37 -37 3 -110 c3 -100 5 -110 23 -110 14 0 19
-7 19 -30 l0 -30 -61 0 c-52 0 -62 3 -66 20 -5 19 -6 19 -37 -3 -45 -32 -125
-31 -161 3 -73 67 -46 149 56 173 24 6 57 0 102 -18 15 -6 17 -1 17 46 0 64
-19 89 -67 89 -31 0 -33 -2 -27 -25 8 -32 -19 -75 -48 -75 -46 0 -71 47 -47
91 22 42 69 60 147 57 68 -3 74 -5 110 -41z m386 14 c54 -51 15 -122 -50 -92
-23 10 -26 16 -21 46 6 34 5 35 -28 35 -24 0 -39 -7 -49 -22 -23 -33 -3 -56
73 -83 82 -30 111 -57 111 -105 0 -91 -112 -145 -221 -109 -75 25 -105 91 -56
123 45 30 85 -2 72 -57 -5 -20 -2 -26 19 -31 13 -3 36 -2 51 4 22 8 26 15 23
42 -3 35 -7 37 -109 81 -70 30 -90 67 -68 124 21 54 67 75 156 71 59 -3 76 -7
97 -27z m-2326 -676 c151 -64 151 -246 0 -310 -23 -9 -67 -15 -113 -15 l-76 0
3 -67 3 -68 58 -3 57 -3 0 -35 0 -34 -162 2 -163 3 -3 33 c-3 29 -1 32 25 32
51 0 53 9 53 210 0 200 -2 210 -52 210 -24 0 -28 4 -28 30 l0 30 180 0 c140 0
189 -3 218 -15z m1322 -87 c1 -100 1 -102 18 -82 47 56 143 71 203 31 51 -33
83 -106 83 -187 -1 -125 -73 -210 -179 -210 -51 0 -77 10 -116 47 l-26 24 -27
-36 c-18 -23 -35 -35 -52 -35 l-24 0 0 233 c0 241 -3 257 -42 257 -13 0 -18 8
-18 30 l0 30 90 0 90 0 0 -102z m510 -119 c0 -133 4 -228 10 -240 6 -11 21
-19 36 -19 22 0 25 -4 22 -32 l-3 -33 -120 0 -120 0 -3 32 c-3 28 0 32 25 35
l28 3 0 205 0 205 -27 3 c-24 3 -28 8 -28 33 l0 29 90 0 90 0 0 -221z m-3378
-51 l3 -193 23 -3 c19 -3 23 -9 20 -30 -3 -26 -6 -27 -70 -30 -67 -3 -68 -2
-68 22 l0 25 -36 -24 c-71 -49 -158 -24 -199 56 -19 36 -19 142 0 178 25 48
72 81 116 81 42 0 99 -23 99 -40 0 -6 5 -10 11 -10 6 0 9 19 7 48 -2 38 -7 49
-25 57 -14 6 -23 18 -23 32 0 22 4 23 70 23 l70 0 2 -192z m576 -5 l2 -193 25
0 c21 0 25 -5 25 -30 l0 -30 -100 0 -100 0 0 29 c0 23 5 30 23 33 22 3 22 6
25 165 l2 162 -25 7 c-18 4 -25 13 -25 31 0 23 2 24 73 21 l72 -3 3 -192z
m1969 132 c71 -30 113 -93 113 -170 l0 -45 -135 0 c-153 0 -160 -3 -128 -67
23 -47 56 -65 108 -59 41 5 95 50 95 79 0 9 10 12 29 9 28 -4 29 -6 20 -30
-17 -45 -60 -93 -95 -108 -47 -20 -141 -17 -189 5 -80 36 -120 111 -113 212
10 142 160 230 295 174z m1241 0 c78 -33 122 -102 122 -195 0 -96 -52 -173
-136 -200 -20 -7 -65 -10 -100 -8 -50 3 -72 10 -106 33 -135 96 -112 317 39
370 51 19 135 18 181 0z m-1898 -145 c0 -137 2 -152 20 -170 26 -26 53 -25 87
4 27 23 28 28 31 135 l4 111 -26 0 c-23 0 -26 4 -26 35 l0 35 85 0 85 0 0
-158 c0 -163 4 -182 42 -182 14 0 18 -8 18 -35 l0 -35 -90 0 -90 0 0 38 c-1
34 -2 36 -15 18 -58 -76 -190 -74 -230 4 -11 21 -15 62 -15 155 l0 125 -30 0
c-28 0 -30 3 -30 35 l0 35 90 0 90 0 0 -150z m-1539 65 c35 -34 59 -82 59
-120 l0 -25 -116 0 -116 0 6 -32 c9 -46 43 -78 81 -78 35 0 80 30 90 59 4 13
12 17 25 14 25 -7 25 -7 -2 -54 -58 -103 -232 -89 -287 24 -43 89 -16 171 74
229 23 15 44 18 92 16 53 -3 68 -9 94 -33z"/>
<path d="M3566 1960 c-14 -39 -26 -75 -26 -81 0 -5 27 -9 60 -9 35 0 60 4 60
10 0 14 -50 133 -60 143 -4 5 -19 -24 -34 -63z"/>
<path d="M5534 1979 c-77 -22 -79 -198 -3 -229 24 -10 33 -10 54 4 32 21 45
54 45 114 0 83 -39 127 -96 111z"/>
<path d="M4394 1815 c-30 -45 10 -88 65 -70 29 9 38 51 16 75 -25 27 -61 25
-81 -5z"/>
<path d="M6145 1977 c-8 -13 -18 -37 -21 -55 l-6 -32 71 0 71 0 0 33 c0 48
-24 77 -65 77 -25 0 -39 -6 -50 -23z"/>
<path d="M6546 1824 c-19 -18 -21 -55 -4 -72 7 -7 24 -12 38 -12 34 0 50 17
50 52 0 43 -53 64 -84 32z"/>
<path d="M4570 1191 l0 -111 40 0 c79 0 120 41 120 119 0 53 -40 90 -108 98
l-52 6 0 -112z"/>
<path d="M6129 1145 c-32 -17 -49 -61 -49 -127 0 -86 35 -138 92 -138 93 2
122 204 37 264 -28 19 -46 20 -80 1z"/>
<path d="M2990 1078 c-41 -68 -12 -188 46 -188 41 0 63 18 74 61 23 83 -11
159 -71 159 -22 0 -34 -8 -49 -32z"/>
<path d="M5637 1169 c-23 -13 -47 -62 -47 -94 0 -25 1 -25 80 -25 89 0 89 0
70 72 -15 52 -59 73 -103 47z"/>
<path d="M6857 1162 c-27 -29 -37 -70 -37 -145 0 -120 46 -178 118 -148 41 17
56 59 55 156 0 84 -17 137 -48 149 -31 11 -72 6 -88 -12z"/>
<path d="M3416 1111 c-9 -10 -20 -35 -23 -55 l-6 -36 67 0 c73 0 78 7 55 67
-18 47 -62 58 -93 24z"/>
<path d="M3367 2743 c-11 -10 -8 -20 8 -27 10 -4 15 1 15 14 0 20 -11 26 -23
13z"/>
<path d="M3223 2623 c-17 -6 -16 -23 1 -23 8 0 16 7 20 15 6 15 1 17 -21 8z"/>
<path d="M3283 2616 c-26 -12 -35 -29 -27 -51 9 -22 20 -18 45 16 24 34 16 51
-18 35z"/>
<path d="M3185 2375 c-3 -8 -7 -22 -10 -30 -2 -8 0 -15 5 -15 10 0 40 39 40
52 0 14 -31 8 -35 -7z"/>
<path d="M3082 2228 c3 -7 15 -14 29 -16 23 -2 23 -2 5 13 -24 18 -39 20 -34
3z"/>
<path d="M3045 2200 c-17 -18 -17 -20 -1 -20 9 0 19 7 23 15 9 25 -2 27 -22 5z"/>
<path d="M3080 2165 c0 -8 2 -15 4 -15 2 0 6 7 10 15 3 8 1 15 -4 15 -6 0 -10
-7 -10 -15z"/>
<path d="M3030 2140 c0 -13 5 -20 13 -17 6 2 12 10 12 17 0 7 -6 15 -12 18 -8
2 -13 -5 -13 -18z"/>
<path d="M2986 2105 c-6 -46 4 -75 25 -75 12 0 8 58 -6 93 -12 29 -12 29 -19
-18z"/>
<path d="M3045 2080 c4 -6 11 -8 16 -5 14 9 11 15 -7 15 -8 0 -12 -5 -9 -10z"/>
<path d="M2952 1999 c5 -14 48 -32 48 -20 0 4 -12 13 -26 20 -20 9 -25 9 -22
0z"/>
<path d="M2838 1699 l-5 -31 18 23 c22 29 24 39 5 39 -8 0 -16 -13 -18 -31z"/>
<path d="M2803 1632 c-25 -29 -29 -42 -13 -42 10 0 44 59 38 65 -2 2 -13 -9
-25 -23z"/>
<path d="M2518 1643 c7 -3 16 -2 19 1 4 3 -2 6 -13 5 -11 0 -14 -3 -6 -6z"/>
<path d="M2467 1606 c-4 -10 -1 -13 8 -9 8 3 12 9 9 14 -7 12 -11 11 -17 -5z"/>
<path d="M2476 1582 c-3 -5 1 -9 9 -9 8 0 12 4 9 9 -3 4 -7 8 -9 8 -2 0 -6 -4
-9 -8z"/>
<path d="M2766 1564 c-4 -9 -4 -19 -1 -22 2 -3 7 3 11 12 4 9 4 19 1 22 -2 3
-7 -3 -11 -12z"/>
<path d="M2416 1541 c-13 -14 -14 -21 -5 -27 8 -5 10 -3 4 6 -6 9 -4 12 6 8
10 -4 15 1 16 13 2 24 0 24 -21 0z"/>
<path d="M2711 1458 c-42 -67 -82 -150 -79 -166 4 -18 48 54 86 141 22 49 17
64 -7 25z"/>
<path d="M2305 1461 c-3 -5 -2 -12 3 -15 5 -3 9 1 9 9 0 17 -3 19 -12 6z"/>
<path d="M2296 1425 c5 -11 2 -14 -12 -9 -20 7 -19 6 6 -13 13 -10 16 -8 17 7
1 11 -2 22 -8 25 -5 3 -6 -1 -3 -10z"/>
<path d="M2253 1384 c-3 -8 -12 -13 -19 -10 -23 9 -24 -11 -1 -30 21 -19 21
-19 7 0 -14 18 -13 19 5 12 11 -4 16 -4 13 0 -4 4 -3 15 3 25 5 11 7 19 4 19
-3 0 -8 -7 -12 -16z"/>
<path d="M2193 1336 c-10 -11 -9 -15 4 -20 9 -4 18 -4 21 -1 3 3 0 5 -6 5 -6
0 -9 7 -6 15 7 18 3 19 -13 1z"/>
<path d="M2170 1294 c0 -9 -5 -12 -12 -8 -7 4 -9 3 -5 -1 15 -17 35 -13 30 6
-6 23 -13 25 -13 3z"/>
<path d="M2583 1215 c-39 -75 -103 -196 -135 -255 -58 -104 -116 -217 -123
-240 -11 -37 8 -14 40 48 15 29 31 54 35 57 5 3 11 18 15 35 3 16 15 40 25 53
39 49 183 334 177 350 -2 7 -18 -15 -34 -48z"/>
<path d="M2113 1235 c0 -8 4 -12 9 -9 5 3 6 10 3 15 -9 13 -12 11 -12 -6z"/>
<path d="M1973 1133 c-4 -9 -2 -18 5 -21 6 -2 8 -11 5 -20 -7 -18 -5 -17 17
11 11 16 11 18 -1 15 -8 -2 -13 4 -13 15 2 22 -5 22 -13 0z"/>
<path d="M1856 1015 c4 -9 9 -13 12 -11 3 3 12 0 20 -7 13 -9 14 -9 8 0 -4 7
-16 18 -26 23 -16 9 -18 8 -14 -5z"/>
<path d="M1826 959 c17 -19 34 -17 34 4 0 7 -4 6 -10 -3 -8 -13 -14 -8 -12 11
1 3 -6 6 -14 6 -12 0 -11 -4 2 -18z"/>
<path d="M1714 888 c-4 -7 -4 -10 1 -6 4 4 15 2 24 -5 14 -11 14 -10 2 6 -16
20 -18 21 -27 5z"/>
<path d="M1690 873 c0 -6 5 -15 10 -18 6 -4 8 -11 5 -16 -10 -15 2 -10 16 8 8
10 9 14 2 10 -7 -4 -16 0 -22 10 -6 10 -11 13 -11 6z"/>
<path d="M1655 840 c3 -5 12 -7 20 -3 21 7 19 13 -6 13 -11 0 -18 -4 -14 -10z"/>
<path d="M1616 801 c-10 -11 -15 -25 -11 -31 5 -9 1 -10 -13 -6 -26 8 -37 -8
-17 -24 11 -9 15 -9 15 -1 0 7 4 10 8 7 4 -2 14 4 21 16 7 11 8 17 2 13 -17
-10 -13 6 6 27 9 10 14 18 11 18 -3 0 -13 -9 -22 -19z"/>
<path d="M1527 723 c4 -11 3 -14 -5 -9 -7 4 -15 1 -18 -8 -3 -9 -9 -14 -13
-12 -4 3 -7 -4 -7 -14 0 -13 4 -16 12 -10 6 6 14 7 18 3 4 -4 4 0 0 10 -3 9
-1 17 5 17 5 0 15 9 21 20 8 16 8 20 -4 20 -10 0 -13 -6 -9 -17z"/>
<path d="M1450 641 c0 -6 4 -13 10 -16 6 -3 7 1 4 9 -7 18 -14 21 -14 7z"/>
<path d="M2222 532 c-65 -119 -84 -153 -106 -186 -9 -14 -21 -38 -26 -54 l-10
-27 22 27 c26 32 182 327 176 333 -2 2 -28 -39 -56 -93z"/>
<path d="M2040 199 c0 -7 -18 -43 -40 -82 -44 -75 -49 -101 -8 -40 60 90 78
133 58 133 -5 0 -10 -5 -10 -11z"/>
<path d="M3143 158 c-26 -13 -48 -57 -58 -115 l-7 -43 114 0 115 0 -8 58 c-6
46 -14 62 -39 85 -32 29 -76 35 -117 15z"/>
<path d="M4419 155 c-29 -16 -46 -48 -55 -105 l-7 -40 102 0 101 0 0 40 c0 96
-67 145 -141 105z"/>
<path d="M6780 143 c-26 -23 -32 -38 -37 -85 l-6 -58 112 0 113 0 -7 43 c-4
23 -14 56 -22 73 -27 59 -103 72 -153 27z"/>
<path d="M3825 143 c-42 -11 -85 -69 -85 -118 l0 -25 110 0 c104 0 110 1 110
20 0 40 -40 101 -75 116 -19 8 -36 13 -37 13 -2 -1 -12 -4 -23 -6z"/>
<path d="M6174 129 c-28 -14 -54 -61 -54 -98 l0 -31 91 0 92 0 -5 52 c-8 76
-59 108 -124 77z"/>
</g>
</svg>
