<?xml version="1.0" standalone="no"?>
<!DOCTYPE svg PUBLIC "-//W3C//DTD SVG 20010904//EN"
 "http://www.w3.org/TR/2001/REC-SVG-20010904/DTD/svg10.dtd">
<svg version="1.0" xmlns="http://www.w3.org/2000/svg"
 width="1183.000000pt" height="380.000000pt" viewBox="0 0 1183.000000 380.000000"
 preserveAspectRatio="xMidYMid meet">
<metadata>
Created by potrace 1.16, written by Peter Selinger 2001-2019
</metadata>
<g transform="translate(0.000000,380.000000) scale(0.100000,-0.100000)"
fill="#000000" stroke="none">
<path d="M8100 2894 c-129 -14 -228 -28 -310 -45 -52 -11 -133 -26 -180 -35
-196 -34 -536 -146 -709 -234 -43 -21 -109 -46 -147 -55 -38 -9 -87 -27 -111
-40 -33 -20 -55 -25 -110 -25 -37 0 -93 -7 -123 -15 -38 -10 -58 -11 -65 -4
-15 16 27 46 143 101 89 42 103 52 100 71 -5 34 -128 111 -252 158 -158 59
-158 59 -273 6 -169 -79 -224 -84 -333 -36 -84 38 -105 34 -97 -18 9 -54 56
-122 112 -165 55 -42 210 -109 310 -136 36 -9 65 -20 65 -23 0 -14 -210 -20
-515 -17 -299 3 -313 2 -389 -20 -78 -22 -80 -23 -146 -6 -66 18 -68 17 -241
-11 -218 -37 -407 -39 -599 -7 -184 30 -238 34 -312 23 -52 -7 -82 -6 -130 5
-85 20 -337 34 -474 27 -118 -6 -222 10 -311 48 -58 25 -54 39 12 39 71 0 148
16 208 42 38 17 47 26 47 47 0 55 -203 208 -302 226 -24 5 -65 0 -120 -14 -72
-18 -92 -20 -137 -10 -28 6 -64 22 -80 35 -34 29 -62 31 -84 6 -24 -27 -21
-44 18 -101 19 -28 35 -52 35 -55 0 -2 -15 0 -32 4 -18 5 -71 18 -118 29 -139
35 -193 52 -235 76 -22 13 -60 29 -85 36 -51 14 -483 21 -1420 23 l-575 1 -3
-29 -4 -28 49 6 c87 11 871 12 882 1 5 -5 13 -27 16 -47 l7 -38 -87 0 c-48 0
-142 -9 -209 -21 -126 -22 -179 -22 -386 1 -66 7 -118 7 -170 0 -81 -11 -96
-19 -86 -46 5 -12 14 -15 36 -11 90 18 167 19 295 1 145 -19 147 -19 373 22
70 12 109 14 155 8 59 -9 61 -10 68 -43 10 -50 3 -59 -54 -64 -29 -2 -88 -14
-132 -27 -114 -33 -318 -33 -459 -1 -75 17 -114 21 -155 16 -77 -10 -123 -30
-119 -52 4 -20 14 -20 106 -3 57 11 76 10 180 -11 167 -32 317 -31 432 5 47
15 121 30 165 33 l80 6 -42 -47 c-23 -26 -47 -63 -53 -82 -9 -28 -17 -34 -48
-40 -50 -8 -92 -18 -186 -43 -121 -32 -205 -27 -386 24 -58 17 -180 23 -217
11 -13 -4 -23 -15 -23 -26 0 -17 8 -19 98 -17 82 1 110 -3 187 -28 77 -25 106
-29 200 -30 98 0 121 4 208 33 123 41 155 41 191 3 l28 -29 -23 -12 c-13 -7
-44 -32 -69 -55 -47 -45 -95 -64 -208 -86 -73 -14 -272 -7 -317 11 -16 6 -62
18 -101 25 -114 22 -241 -4 -201 -41 9 -9 32 -9 83 -2 66 10 82 8 194 -21 162
-41 252 -42 415 -2 l119 29 43 -41 c57 -55 55 -80 -7 -88 -25 -3 -83 -16 -130
-29 -74 -20 -100 -22 -225 -17 -77 2 -194 13 -260 23 -147 22 -238 14 -243
-22 -3 -21 -1 -22 105 -17 76 4 133 1 194 -11 47 -9 100 -16 117 -16 17 0 33
-4 36 -9 9 -14 -45 -21 -232 -31 -254 -14 -258 -18 -272 -243 -8 -124 -7 -144
7 -159 32 -35 91 -20 185 49 25 18 49 30 52 25 3 -4 0 -27 -6 -51 -15 -61 2
-109 56 -159 80 -74 194 -89 347 -46 56 16 62 16 105 -1 45 -17 46 -17 67 4
19 19 21 32 22 172 1 118 -1 154 -12 165 -19 19 -72 18 -141 -2 -40 -12 -73
-15 -116 -10 -34 4 -84 10 -112 13 -56 6 -112 -8 -156 -39 -22 -15 -27 -16
-22 -4 15 39 -43 128 -121 186 -25 19 -45 39 -45 46 0 15 520 23 830 13 249
-8 315 -21 530 -101 173 -64 297 -127 435 -220 152 -102 459 -254 550 -272
115 -23 441 -26 1140 -12 533 11 678 11 755 1 138 -19 643 -28 813 -15 78 6
527 15 997 20 941 11 892 8 1128 79 l133 41 237 -11 c281 -13 808 -5 1067 16
99 8 264 15 366 15 102 0 210 4 240 9 30 5 126 17 214 26 88 9 216 22 285 30
69 8 145 16 170 18 25 2 63 12 83 22 42 20 137 133 200 239 l41 68 50 -5 c51
-6 217 -82 222 -102 2 -5 -11 -19 -29 -30 -97 -62 -30 -180 102 -179 71 0 159
38 191 84 34 47 38 116 11 169 l-22 42 41 45 c114 123 98 214 -49 289 -25 12
-54 37 -64 54 -12 20 -26 31 -40 31 -42 -1 -97 -65 -97 -113 0 -35 2 -35 -180
14 -112 30 -138 34 -258 34 -164 0 -165 3 -49 118 101 98 117 127 117 204 0
58 -17 98 -52 126 -9 6 -23 38 -32 70 -39 137 -184 214 -295 158 -28 -15 -56
-19 -112 -18 -41 0 -84 -5 -96 -11 -26 -15 -496 -7 -583 10 -30 6 -107 34
-170 63 -63 29 -142 58 -175 64 -150 28 -635 57 -745 45z m440 -54 c305 -19
345 -27 477 -93 38 -20 112 -48 164 -63 52 -15 98 -31 104 -36 13 -11 -102
-10 -166 2 -29 6 -96 30 -149 55 -210 98 -347 127 -501 106 -90 -12 -275 -65
-409 -118 -205 -82 -408 -153 -425 -151 -14 2 -21 12 -23 35 -6 59 92 132 276
206 121 49 303 79 432 71 41 -3 140 -9 220 -14z m-2303 -72 c9 -8 13 -52 13
-159 l0 -148 -31 -16 c-16 -9 -45 -15 -62 -13 l-32 3 3 90 c4 98 -3 125 -42
170 -14 17 -25 35 -23 40 2 6 28 20 58 32 53 23 90 23 116 1z m2423 8 c99 -16
242 -65 317 -108 47 -26 51 -31 40 -49 -13 -20 -42 -26 -52 -9 -10 17 -116 67
-176 84 -130 36 -304 29 -425 -20 -52 -20 -68 -23 -79 -14 -19 15 -19 54 -2
69 23 19 172 51 277 60 8 0 53 -5 100 -13z m-6517 -22 c99 -32 129 -56 88 -69
-31 -9 -71 -56 -71 -81 0 -21 -5 -24 -34 -24 -18 0 -73 13 -122 29 -125 41
-529 121 -643 128 -72 4 -112 1 -159 -11 -34 -9 -67 -14 -72 -11 -14 9 -12 53
3 58 6 2 225 3 485 1 413 -2 480 -5 525 -20z m5577 6 c0 -4 -21 -22 -48 -39
-26 -16 -61 -44 -77 -61 -36 -37 -115 -84 -170 -100 -22 -6 -112 -15 -200 -19
l-160 -7 -110 -58 c-87 -46 -115 -56 -139 -52 -37 8 -39 10 -31 36 20 63 546
255 830 303 78 14 105 13 105 -3z m-4728 -23 c4 -7 8 -58 8 -114 l0 -103 -35
0 c-39 0 -40 2 -50 105 -3 33 -8 78 -12 99 l-6 39 44 -7 c24 -4 47 -12 51 -19z
m-327 -1 c22 -7 75 -17 118 -21 86 -8 79 0 95 -108 5 -32 6 -60 2 -62 -12 -7
-202 111 -242 150 -57 56 -49 67 27 41z m3114 -58 c53 -19 57 -19 149 -2 111
21 137 13 160 -48 17 -45 8 -166 -13 -174 -17 -7 -172 56 -243 98 -72 43 -142
112 -142 139 0 16 4 19 18 14 9 -5 41 -17 71 -27z m-4124 -22 c105 -20 242
-52 305 -71 63 -18 133 -37 155 -41 24 -4 58 -22 85 -44 25 -21 60 -46 79 -55
l34 -17 -45 -22 c-25 -12 -60 -34 -77 -49 -18 -15 -39 -27 -47 -27 -8 0 -72
22 -142 49 -196 75 -339 113 -537 141 -64 9 -95 9 -155 -2 -127 -24 -190 2
-190 77 0 113 164 132 535 61z m8450 34 c3 -5 12 -7 20 -3 8 3 15 0 15 -6 0
-6 3 -10 8 -8 14 4 81 -65 75 -79 -3 -8 -1 -14 4 -14 5 0 10 -7 10 -15 0 -22
-2 -20 -31 29 -23 39 -86 98 -86 81 0 -3 -6 -3 -12 2 -44 26 -128 -15 -128
-63 0 -29 16 -39 60 -39 26 0 35 -5 38 -19 8 -38 -62 -61 -108 -36 -48 26 -42
138 8 164 30 16 118 20 127 6z m-7618 -51 c56 -17 171 -69 295 -133 293 -151
281 -148 643 -156 165 -3 308 -10 318 -14 25 -12 21 -22 -15 -37 -18 -7 -56
-37 -85 -67 l-51 -53 -129 -10 c-70 -6 -209 -9 -308 -6 -218 5 -245 13 -414
125 -155 102 -222 135 -338 162 -113 27 -138 37 -176 76 -54 53 -22 124 64
143 45 10 85 4 196 -30z m6047 0 c16 -39 16 -43 0 -60 -9 -11 -22 -19 -29 -19
-14 0 -58 46 -74 77 -10 20 -9 23 16 29 16 3 33 7 38 9 25 9 34 2 49 -36z
m104 4 c-3 -33 -7 -38 -29 -41 -22 -3 -29 2 -38 29 -16 47 -15 49 30 49 l40 0
-3 -37z m112 2 c0 -33 -2 -35 -34 -35 -29 0 -34 4 -39 27 -7 37 -2 43 39 43
32 0 34 -2 34 -35z m1114 29 c12 -5 16 -21 16 -70 l0 -64 -34 0 -34 0 5 63 c3
34 11 65 17 69 13 9 11 9 30 2z m-1626 -16 c22 -22 12 -45 -46 -100 -53 -51
-67 -58 -187 -98 -72 -23 -181 -68 -243 -98 -121 -60 -135 -61 -135 -3 0 58
39 91 179 150 189 78 397 160 410 161 5 0 15 -5 22 -12z m610 -39 c4 -30 -13
-40 -45 -28 -24 9 -27 17 -17 44 4 10 16 15 33 13 20 -2 27 -9 29 -29z m-439
-11 c51 -54 58 -75 35 -99 -20 -19 -20 -19 -79 27 -33 25 -61 51 -63 58 -2 10
49 43 70 45 4 1 20 -13 37 -31z m519 0 c16 -16 15 -50 -2 -73 -14 -19 -15 -19
-35 -1 -32 29 -23 86 14 86 6 0 16 -5 23 -12z m205 1 c56 -15 46 -35 -29 -59
-36 -11 -70 -17 -75 -14 -24 15 1 62 41 77 22 8 21 8 63 -4z m641 2 c3 -5 3
-23 0 -40 l-6 -31 -81 0 c-103 0 -211 -26 -422 -101 -94 -33 -177 -61 -185
-62 -22 -3 -24 36 -3 55 20 17 218 94 340 132 136 42 344 69 357 47z m-1444
-92 c52 -43 60 -53 48 -65 -11 -11 -26 -10 -93 8 -44 12 -82 23 -84 25 -7 5
49 83 59 83 5 0 37 -23 70 -51z m-760 12 c11 -17 29 -33 40 -36 25 -8 25 -29
0 -63 -30 -40 -34 -90 -13 -132 16 -31 23 -35 57 -35 51 0 55 -16 12 -46 -43
-29 -62 -62 -71 -120 -5 -34 -3 -55 9 -77 34 -65 87 -55 236 43 129 85 183
114 235 122 33 5 36 4 33 -15 -5 -31 -434 -247 -542 -272 -104 -24 -248 -42
-258 -32 -4 4 18 20 50 34 31 15 76 43 100 63 64 55 84 103 90 212 7 133 -6
170 -90 259 l-69 72 73 25 c40 14 76 26 80 26 4 1 16 -12 28 -28z m1237 18
c35 -13 78 -53 108 -99 22 -36 43 -120 29 -120 -12 0 -33 34 -34 54 0 29 -46
102 -79 125 -16 12 -53 27 -82 35 l-54 15 42 0 c23 1 54 -4 70 -10z m173 -53
c0 -38 -16 -57 -26 -32 -8 21 3 66 16 66 6 0 10 -15 10 -34z m-209 3 c71 -31
58 -44 -42 -44 -120 0 -166 -27 -236 -137 -20 -32 -41 -58 -45 -58 -11 0 -10
58 2 101 15 55 73 115 133 138 68 26 127 26 188 0z m388 17 c-3 -3 -29 -18
-59 -33 -69 -36 -101 -89 -76 -125 9 -12 16 -38 16 -56 0 -22 9 -45 25 -64 31
-37 33 -59 3 -31 -13 11 -38 28 -55 37 -31 16 -33 20 -33 71 0 68 32 158 63
173 36 19 129 40 116 28z m-1909 -21 c5 -3 8 -25 7 -48 -3 -37 -6 -42 -29 -45
-23 -3 -30 3 -48 38 -12 23 -19 47 -17 54 5 12 68 13 87 1z m2880 -5 c0 -23
-44 -55 -65 -46 -22 8 -18 19 18 43 41 27 47 27 47 3z m156 -21 c30 -28 39
-74 25 -126 -14 -50 -65 -103 -98 -101 -30 3 -29 12 2 32 28 18 65 85 65 116
0 22 -39 67 -74 87 -10 6 -16 15 -12 21 9 15 64 -2 92 -29z m-2917 -4 c29 -28
23 -63 -15 -102 -22 -22 -28 -24 -40 -11 -8 8 -17 44 -21 83 l-6 68 29 -7 c16
-4 40 -18 53 -31z m2476 0 c0 -25 -4 -31 -26 -33 -29 -3 -44 18 -33 50 4 14
13 18 32 16 23 -2 27 -8 27 -33z m-8343 10 c62 -8 165 -28 229 -44 112 -29
370 -122 397 -143 6 -6 12 -23 12 -38 0 -16 11 -42 25 -58 14 -17 25 -35 25
-41 0 -23 -33 -61 -52 -61 -11 0 -76 22 -145 50 -68 27 -190 66 -271 85 -81
19 -169 43 -197 51 -77 24 -171 28 -235 9 -119 -36 -144 -39 -175 -24 -15 8
-37 26 -48 41 l-20 27 24 47 c35 70 66 88 152 91 40 2 88 7 107 12 49 13 47
13 172 -4z m5631 -17 c17 -22 18 -30 7 -43 -17 -21 -57 -19 -91 6 -30 21 -38
53 -16 63 31 13 80 0 100 -26z m2607 2 c0 -23 -4 -30 -20 -30 -11 0 -23 7 -26
15 -9 23 3 45 26 45 16 0 20 -7 20 -30z m-195 10 c8 -13 -136 -106 -178 -116
-59 -12 -141 -41 -198 -69 -60 -29 -89 -28 -89 3 0 45 36 68 187 120 211 73
264 85 278 62z m400 -25 c0 -23 -5 -31 -21 -33 -30 -4 -48 21 -34 48 18 33 55
23 55 -15z m-291 9 c12 -31 7 -45 -16 -42 -26 3 -37 36 -16 49 19 12 25 11 32
-7z m-1372 -25 c51 -15 68 -24 66 -36 -5 -23 -218 -26 -218 -3 0 24 38 60 62
60 11 0 52 -9 90 -21z m-1268 -11 c20 -28 20 -52 1 -68 -13 -11 -24 -9 -65 10
-57 27 -62 43 -22 64 39 22 68 19 86 -6z m1411 -10 c-4 -18 -9 -60 -12 -94 -4
-54 -2 -64 20 -90 13 -16 45 -62 71 -103 67 -104 132 -167 183 -176 72 -12
158 15 241 75 63 46 84 84 77 143 -6 51 4 61 29 25 48 -68 -29 -182 -165 -246
-110 -51 -218 -62 -266 -26 -49 36 -182 197 -210 254 -36 72 -37 146 -4 218
28 59 47 69 36 20z m1783 16 c12 -8 22 -24 22 -35 0 -19 -26 -79 -34 -79 -3 0
-11 -3 -19 -6 -10 -3 -25 12 -47 47 l-32 52 24 19 c29 22 57 23 86 2z m-1393
-28 c46 -25 112 -113 121 -163 13 -72 -60 -165 -154 -197 -25 -9 -70 -16 -100
-16 -51 0 -58 3 -93 39 -40 43 -79 132 -79 182 0 64 77 161 138 175 15 3 32 7
37 9 22 7 92 -9 130 -29z m1219 12 c19 -27 5 -48 -31 -48 -29 0 -39 21 -23 49
14 27 35 27 54 -1z m-3339 -4 c66 -8 122 -17 124 -20 2 -2 -13 -38 -35 -80
l-39 -75 -165 -3 c-189 -4 -231 -12 -352 -67 -99 -45 -206 -67 -244 -50 -32
14 -32 60 -1 88 26 24 376 197 427 212 53 14 153 13 285 -5z m775 -35 c12 -28
11 -32 -21 -65 -36 -37 -71 -42 -77 -11 -2 9 11 42 28 72 35 61 47 61 70 4z
m-4960 8 c30 -13 98 -53 150 -89 139 -95 195 -124 289 -148 97 -25 183 -29
439 -16 l182 9 0 -22 c0 -12 11 -39 25 -59 30 -45 31 -63 4 -88 -19 -17 -47
-20 -238 -29 -119 -5 -281 -9 -361 -7 l-145 2 -80 39 c-44 22 -116 69 -160
106 -152 124 -141 120 -283 120 -124 0 -125 0 -145 27 -17 23 -18 31 -8 56 43
103 204 151 331 99z m5578 -42 c5 -80 -1 -90 -67 -114 -33 -12 -119 -60 -190
-107 -99 -65 -136 -85 -158 -82 -42 5 -52 44 -25 99 27 56 122 119 282 189 63
28 119 55 124 60 19 19 31 3 34 -45z m1802 33 c45 -19 102 -75 98 -96 -3 -13
-32 -20 -148 -33 -80 -9 -181 -24 -225 -32 -166 -32 -168 -31 -131 41 48 94
157 145 296 138 42 -2 91 -10 110 -18z m-3702 -18 c-2 -6 -49 -32 -105 -58
-109 -51 -140 -73 -154 -111 -9 -24 -11 -24 -102 -18 -344 24 -488 28 -557 18
-82 -13 -208 -59 -262 -96 -43 -29 -55 -31 -80 -8 -30 27 -21 48 52 117 88 82
126 102 259 132 104 23 115 24 331 16 199 -8 516 0 529 13 9 10 93 5 89 -5z
m732 -8 c44 -22 55 -68 18 -76 -44 -9 -129 -13 -133 -6 -7 11 53 100 67 100 7
-1 29 -9 48 -18z m300 8 c11 -8 7 -9 -15 -4 -37 8 -45 14 -19 14 10 0 26 -5
34 -10z m-126 -8 c2 -4 -4 -8 -14 -8 -10 0 -16 4 -14 8 3 4 9 8 14 8 5 0 11
-4 14 -8z m3006 -18 c13 -33 6 -44 -31 -44 -37 0 -48 24 -24 50 25 27 44 25
55 -6z m-1790 6 c27 -15 14 -47 -22 -55 -17 -4 -55 -18 -84 -31 -30 -13 -59
-24 -65 -24 -6 0 -9 21 -7 53 l3 52 40 6 c65 10 115 10 135 -1z m-4101 -24
c234 -37 298 -40 459 -22 79 9 162 21 185 26 51 12 187 13 187 2 0 -29 -139
-141 -197 -158 -123 -38 -190 -47 -343 -47 -132 0 -173 4 -273 26 -212 48
-378 29 -507 -58 -29 -19 -56 -35 -60 -35 -16 0 -50 53 -50 77 0 38 99 135
170 167 116 52 204 57 429 22z m3054 -37 c34 -37 35 -73 2 -95 -14 -9 -27 -15
-28 -13 -1 2 -9 18 -17 34 -29 56 -112 43 -158 -25 -22 -32 -23 -42 -18 -107
4 -47 2 -74 -5 -79 -28 -17 -49 64 -38 146 14 108 46 148 135 169 56 13 95 4
127 -30z m2185 9 c-4 -30 -48 -39 -48 -10 0 24 8 32 32 32 14 0 19 -6 16 -22z
m-92 -2 c11 -29 -26 -76 -84 -104 -93 -47 -160 -68 -173 -55 -26 26 9 56 158
134 82 43 91 45 99 25z m-1846 -45 c0 -60 -18 -81 -66 -81 -61 0 -59 57 3 102
55 39 63 36 63 -21z m-6027 14 c200 -33 556 -143 644 -201 13 -8 32 -32 43
-54 20 -39 20 -42 4 -92 -10 -29 -19 -55 -20 -57 -2 -2 -23 3 -46 12 -68 25
-116 36 -216 47 -71 8 -124 22 -221 60 -214 82 -272 94 -439 87 -153 -7 -182
-2 -207 37 -39 58 10 93 196 140 158 40 150 40 262 21z m6843 -26 c6 -11 -55
-107 -83 -131 -13 -11 -21 -7 -50 27 -18 21 -32 46 -31 54 3 16 100 60 135 61
12 0 25 -5 29 -11z m-1416 -23 c0 -28 -19 -45 -69 -64 -73 -27 -71 -28 -71 12
0 64 13 76 80 76 56 0 60 -1 60 -24z m2505 -7 c0 -26 -29 -39 -48 -20 -7 7 -5
16 8 31 23 25 40 21 40 -11z m-2057 -15 c5 -58 -58 -114 -113 -100 -33 8 -37
56 -5 56 27 0 70 22 94 49 11 12 20 21 20 21 1 0 3 -12 4 -26z m2532 17 c0
-19 -122 -46 -275 -61 -162 -15 -403 -102 -500 -180 -63 -50 -107 -69 -253
-107 -219 -57 -250 -62 -374 -69 l-118 -7 -54 51 c-49 46 -60 52 -98 52 -137
0 -188 -179 -73 -254 14 -9 25 -23 25 -31 0 -41 -81 10 -127 79 -25 37 -33 59
-33 94 0 41 5 50 45 88 49 48 123 76 177 67 42 -6 97 -35 122 -62 38 -42 89
-46 236 -16 41 8 131 24 199 35 141 22 218 53 309 124 72 56 116 77 222 110
84 26 314 68 460 85 106 12 110 12 110 2z m-3154 -15 c3 -8 0 -32 -6 -55 l-11
-41 -137 0 c-75 0 -157 -5 -181 -11 -73 -16 -151 -59 -213 -116 -68 -62 -91
-73 -158 -73 -75 0 -78 29 -7 76 23 15 73 57 112 94 82 77 107 92 202 119 88
25 390 30 399 7z m441 -2 c14 -36 -76 -139 -100 -115 -14 14 0 75 24 105 23
29 66 35 76 10z m-4733 -28 c18 -7 74 -50 126 -94 51 -44 127 -98 170 -121
118 -63 262 -74 515 -41 45 6 127 8 188 4 l107 -6 0 -27 c0 -14 9 -41 20 -59
11 -18 20 -34 20 -36 0 -2 -46 -6 -102 -9 -57 -4 -166 -18 -243 -33 -231 -43
-433 -33 -550 27 -22 12 -71 51 -110 89 -38 37 -95 80 -125 96 -47 25 -67 29
-139 29 -79 1 -84 2 -108 30 -20 23 -24 35 -19 64 9 56 36 85 87 92 79 11 129
9 163 -5z m7609 -14 c-2 -18 4 -26 27 -34 20 -6 30 -17 30 -30 0 -19 -4 -20
-37 -12 -21 4 -65 8 -98 8 -47 1 -67 -4 -92 -22 -37 -26 -59 -22 -43 8 5 10
10 26 10 36 0 15 -2 15 -22 0 -75 -53 -143 -69 -203 -46 -24 9 -43 35 -33 45
7 8 412 74 438 72 20 -2 24 -7 23 -25z m105 16 c-5 -15 -33 -22 -54 -14 -24 9
-6 26 27 26 20 0 29 -4 27 -12z m-1790 -41 c5 -53 -12 -77 -53 -77 -44 0 -45
17 -4 76 36 52 53 52 57 1z m-2562 23 l113 0 13 -27 c13 -27 17 -28 91 -31 91
-3 94 -12 21 -59 -27 -17 -62 -42 -79 -55 -27 -22 -39 -23 -195 -26 -119 -3
-198 1 -285 14 -183 27 -257 25 -330 -9 -33 -15 -83 -46 -112 -67 -28 -22 -68
-48 -88 -57 -36 -17 -37 -17 -51 2 -20 27 -17 95 5 128 40 61 150 133 265 173
70 25 74 25 295 20 123 -4 275 -6 337 -6z m-1582 -29 c187 -45 392 -47 546 -6
84 23 92 20 118 -34 12 -26 22 -53 22 -58 0 -16 -129 -81 -196 -98 -89 -23
-203 -18 -401 16 -145 25 -196 30 -278 26 -129 -6 -237 -40 -325 -102 -35 -25
-68 -45 -73 -45 -15 0 -46 44 -47 66 0 46 104 156 198 207 113 62 257 71 436
28z m2660 -7 c8 -22 3 -28 -56 -68 -56 -37 -68 -38 -68 -3 0 30 8 39 60 64 55
27 56 27 64 7z m606 -10 c0 -25 -48 -84 -68 -84 -16 0 -62 41 -62 56 0 29 38
54 85 54 42 0 45 -2 45 -26z m3357 -25 c11 -22 10 -25 -20 -41 -42 -22 -57
-22 -57 1 0 24 39 73 54 68 6 -2 16 -14 23 -28z m-3657 -36 c0 -27 3 -58 6
-70 5 -19 2 -23 -15 -23 -28 0 -71 43 -71 70 0 24 42 70 65 70 11 0 15 -11 15
-47z m-240 -8 c-11 -13 -10 -15 3 -10 10 4 17 -1 22 -14 13 -41 120 -127 191
-153 l69 -26 156 18 c86 10 182 25 213 34 58 17 194 81 328 155 43 23 83 39
89 36 6 -5 -11 -19 -42 -37 -61 -33 -124 -74 -154 -99 -34 -29 -209 -97 -292
-112 -130 -26 -146 -27 -262 -28 -97 0 -118 3 -164 24 -29 13 -67 38 -85 57
-40 40 -92 140 -92 177 0 25 1 26 17 11 14 -14 14 -20 3 -33z m2510 29 c0 -21
-39 -75 -59 -82 -14 -5 -56 -21 -94 -36 -47 -18 -86 -26 -129 -26 -60 0 -61 0
-43 20 25 28 184 108 246 124 47 12 79 12 79 0z m-1233 -18 c35 -30 136 -50
202 -41 45 6 47 5 101 -50 67 -68 60 -78 -51 -72 -65 3 -84 8 -126 35 -98 63
-160 76 -228 48 -19 -8 -76 -44 -127 -80 -71 -51 -99 -66 -126 -66 -36 0 -72
23 -72 45 0 7 35 35 78 63 221 143 291 167 349 118z m-1501 -36 c27 -89 30
-86 -108 -93 -77 -4 -162 -16 -226 -32 -57 -14 -117 -25 -134 -25 -36 0 -68
25 -68 53 0 39 110 115 197 136 21 5 103 9 182 8 l144 -2 13 -45z m619 9 c39
-39 39 -41 20 -55 -11 -8 -37 -20 -57 -26 -52 -15 -78 7 -78 67 0 50 4 55 45
55 23 0 41 -10 70 -41z m-5940 6 c48 -9 129 -32 179 -51 169 -67 197 -75 309
-89 156 -21 244 -53 296 -109 l25 -26 -37 -36 c-28 -27 -37 -44 -37 -68 0 -18
-3 -35 -6 -39 -4 -3 -56 20 -118 51 -61 32 -147 72 -191 89 -114 45 -369 109
-506 128 -123 16 -200 38 -219 60 -11 14 -4 61 11 71 14 8 139 32 175 33 17 1
71 -6 119 -14z m5495 -4 c20 -38 11 -66 -35 -111 -37 -37 -46 -41 -60 -30 -8
7 -15 28 -15 50 0 31 7 44 40 74 46 41 55 44 70 17z m2729 4 c30 -15 41 -39
41 -95 0 -51 -24 -82 -63 -78 -25 2 -32 9 -39 36 -6 21 -22 41 -48 58 -31 21
-40 33 -40 54 0 16 6 31 13 33 26 11 109 6 136 -8z m419 3 c24 -24 12 -58 -35
-110 -27 -28 -67 -64 -90 -80 -52 -35 -120 -61 -128 -47 -4 5 19 40 50 77 56
67 58 72 40 129 -6 18 -2 25 16 32 35 14 133 13 147 -1z m143 2 c23 -13 25
-55 3 -64 -9 -3 -29 -6 -45 -6 -35 0 -46 21 -31 56 12 26 40 31 73 14z m160 0
c12 -7 19 -21 19 -40 0 -28 -3 -30 -38 -30 -21 0 -48 7 -60 16 -21 15 -29 44
-15 57 10 11 72 8 94 -3z m157 -17 c18 -11 22 -22 20 -46 -3 -29 -6 -32 -33
-29 -50 5 -75 28 -75 67 0 33 1 34 33 29 17 -4 42 -13 55 -21z m426 -6 c18
-29 -21 -91 -60 -95 -32 -3 -84 29 -84 53 0 16 88 63 114 61 10 0 24 -9 30
-19z m-1119 -1 c37 -27 -5 -56 -81 -56 -20 0 -24 5 -24 29 0 16 6 32 13 34 24
10 74 7 92 -7z m829 -27 c40 -32 30 -89 -16 -89 -39 0 -78 77 -51 103 12 13
40 7 67 -14z m366 -14 c19 -23 6 -90 -25 -130 -14 -19 -29 -35 -33 -35 -11 0
-33 80 -25 93 53 91 61 98 83 72z m-225 -86 c11 -50 -11 -62 -66 -33 -27 14
-30 19 -23 47 3 18 11 43 16 57 l10 25 28 -34 c16 -19 32 -47 35 -62z m-8352
43 c26 -12 82 -54 125 -94 92 -88 159 -120 292 -144 113 -19 198 -15 415 22
83 14 186 27 230 27 l80 2 3 -45 c2 -25 7 -49 13 -54 15 -16 11 -41 -12 -70
-18 -23 -28 -26 -77 -26 -31 0 -122 -7 -202 -15 -188 -19 -511 -19 -563 -1
-55 20 -136 71 -208 133 -79 67 -144 102 -207 109 -98 12 -122 32 -122 103 0
31 6 44 28 61 23 19 36 21 92 18 36 -3 87 -14 113 -26z m3004 2 c54 -12 141
-18 287 -20 196 -2 209 -4 227 -23 24 -26 74 -27 148 -5 l53 15 29 -27 c37
-36 36 -55 -4 -78 -104 -60 -280 -80 -505 -57 -167 17 -496 19 -549 3 -24 -7
-72 -33 -108 -57 -36 -25 -76 -45 -90 -45 -27 0 -45 25 -45 64 0 29 42 82 73
92 12 4 64 34 115 67 51 33 110 66 130 73 51 18 145 17 239 -2z m-1151 -19
c277 -51 371 -51 495 0 32 12 60 20 63 17 3 -3 6 -22 6 -43 0 -21 5 -50 12
-63 15 -34 -6 -58 -85 -97 -164 -81 -294 -79 -582 11 -147 46 -193 48 -306 16
-52 -15 -128 -44 -169 -64 -41 -20 -78 -38 -82 -40 -5 -2 -8 21 -8 51 0 62 7
73 90 134 76 56 111 73 189 88 105 21 222 18 377 -10z m-3182 -18 c79 -42 86
-62 20 -54 -27 4 -109 10 -182 13 -118 6 -155 14 -139 30 11 11 154 42 197 43
33 0 61 -8 104 -32z m5856 8 c11 -21 11 -29 -5 -58 -13 -24 -16 -46 -12 -76 7
-52 -9 -54 -51 -7 -48 55 -48 70 -6 121 42 51 55 55 74 20z m2554 1 c9 -14 7
-20 -8 -30 -43 -26 -57 -44 -74 -91 -18 -50 -18 -50 -66 -53 l-47 -3 20 28
c11 15 25 51 31 78 18 80 33 97 87 93 32 -2 49 -9 57 -22z m809 18 c35 -6 37
-9 37 -44 0 -48 -18 -62 -72 -58 l-43 3 4 45 c4 66 4 65 74 54z m-973 -11 c0
-23 -36 -131 -48 -145 -22 -26 -31 -13 -21 29 5 21 9 54 9 74 0 20 3 39 7 42
8 9 53 9 53 0z m437 -5 c-7 -19 -40 -121 -43 -135 -2 -7 -13 -13 -24 -13 -18
0 -20 6 -20 64 0 56 3 67 22 80 27 19 72 21 65 4z m413 -28 c0 -47 -9 -53
-100 -68 -121 -21 -150 -24 -150 -15 0 11 94 91 128 109 15 7 48 14 75 14 l47
0 0 -40z m282 23 c11 -10 18 -30 18 -55 l0 -39 -47 3 c-48 3 -48 3 -51 41 -2
21 2 45 9 53 15 19 48 18 71 -3z m-1408 -67 c21 -61 16 -77 -35 -120 -49 -41
-102 -29 -59 14 15 15 19 27 14 48 -10 39 -13 42 -38 42 -21 0 -54 25 -45 34
3 3 116 31 139 35 3 1 14 -23 24 -53z m174 27 c10 -69 -48 -155 -113 -167 -51
-10 -61 1 -30 34 28 30 29 32 9 128 l-6 33 68 -3 c62 -3 69 -5 72 -25z m1360
7 c37 -23 41 -46 12 -83 -18 -23 -24 -25 -51 -15 -25 8 -30 15 -25 32 3 11 6
36 6 54 0 37 12 40 58 12z m282 -17 c26 -33 23 -69 -5 -65 -39 7 -65 31 -65
62 0 25 4 30 24 30 15 0 33 -11 46 -27z m-4082 -44 c26 -35 42 -66 38 -75 -3
-8 -32 -27 -63 -41 -52 -23 -76 -26 -228 -33 -124 -5 -192 -13 -252 -29 -95
-25 -136 -25 -141 2 -14 71 69 151 193 186 22 6 107 18 190 27 82 8 151 17
154 20 2 2 18 4 35 3 26 0 38 -10 74 -60z m1467 28 c11 -13 27 -34 36 -47 15
-24 23 -25 123 -28 58 -2 106 -6 106 -10 0 -3 -16 -20 -35 -38 -20 -18 -35
-41 -35 -54 0 -23 -1 -23 -122 -18 -170 7 -217 30 -234 114 -4 24 0 37 22 63
47 56 99 63 139 18z m-491 -16 c23 -24 36 -45 33 -54 -7 -20 -91 -77 -112 -77
-42 0 -105 56 -105 95 0 13 106 72 135 74 6 1 28 -17 49 -38z m1777 13 c9 -11
26 -15 56 -12 31 2 43 -1 43 -10 0 -20 -56 -72 -78 -72 -10 0 -40 -3 -66 -6
l-46 -7 0 37 c0 26 7 44 25 61 28 29 47 31 66 9z m-7946 -45 c214 -57 346
-120 843 -408 114 -65 136 -74 212 -86 47 -8 112 -18 145 -23 100 -16 612 8
724 34 l65 15 32 -38 32 -38 -306 -6 c-169 -4 -415 -3 -547 1 -254 9 -319 19
-405 64 -25 13 -102 53 -173 89 -70 36 -166 91 -213 122 -125 81 -256 144
-459 220 -99 37 -182 69 -184 71 -2 2 2 11 9 19 15 19 17 18 225 -36z m5439
32 c19 -20 33 -176 17 -186 -33 -20 -91 76 -91 148 0 24 3 47 7 50 13 13 50 7
67 -12z m3679 -5 c24 -18 21 -35 -10 -68 -26 -27 -66 -37 -77 -19 -3 5 3 30
15 55 21 48 39 56 72 32z m-2763 -57 c0 -15 7 -46 15 -69 8 -23 15 -46 15 -51
0 -10 -98 -10 -203 0 l-68 6 66 50 c139 105 158 116 167 103 4 -7 8 -25 8 -39z
m951 34 c44 -21 51 -43 13 -43 -36 0 -64 17 -64 40 0 24 4 25 51 3z m-1365
-25 c9 -18 32 -52 51 -75 19 -23 32 -47 28 -52 -7 -13 -71 -31 -107 -31 -33 0
-73 46 -88 102 -13 46 -7 56 43 75 48 17 55 16 73 -19z m3275 3 l24 -19 -42
-41 c-37 -37 -70 -51 -85 -35 -7 6 63 113 73 114 4 0 17 -9 30 -19z m-3638 -8
c4 -2 7 -12 7 -21 0 -9 11 -41 25 -70 14 -30 25 -56 25 -58 0 -8 -82 -3 -100
6 -29 16 -54 132 -33 154 7 6 59 -1 76 -11z m3167 -8 c0 -28 -46 -38 -210 -46
-91 -5 -194 -13 -230 -18 -36 -6 -126 -13 -200 -16 -74 -3 -228 -13 -341 -22
-113 -9 -214 -13 -225 -9 -39 15 60 36 216 46 85 5 214 18 285 29 72 11 193
24 270 30 77 6 156 13 175 15 19 1 86 4 148 4 92 2 112 -1 112 -13z m-2966
-32 c3 -21 15 -55 26 -75 l20 -38 -63 0 -63 0 -32 53 c-18 29 -32 63 -32 75 0
21 5 22 69 22 l68 0 7 -37z m1263 17 c4 -22 -65 -70 -99 -70 l-29 0 27 36 c39
51 95 70 101 34z m145 3 c20 -18 24 -53 6 -53 -19 0 -57 41 -51 56 7 19 22 18
45 -3z m-6440 -13 c20 -6 71 -40 117 -80 80 -69 160 -125 214 -148 40 -17 150
-32 254 -33 78 -1 385 20 534 37 l55 6 18 -41 c10 -22 27 -48 37 -57 31 -28
24 -52 -18 -63 -106 -28 -197 -33 -552 -29 -269 4 -375 8 -401 18 -19 7 -71
36 -115 63 -44 28 -118 68 -165 90 -185 85 -220 184 -83 233 47 16 58 17 105
4z m1833 -32 c98 -32 229 -63 315 -73 72 -8 179 14 258 54 70 35 72 36 72 18
0 -8 11 -36 25 -63 14 -27 25 -52 25 -55 0 -6 -41 -25 -179 -81 -137 -56 -257
-56 -434 -2 -45 14 -118 36 -162 49 -103 32 -176 32 -258 1 -83 -31 -145 -63
-180 -92 -34 -28 -58 -21 -76 25 -24 58 35 133 147 190 57 28 134 56 182 65
55 10 178 -7 265 -36z m6720 13 c20 -39 12 -56 -39 -81 -43 -20 -116 -27 -116
-11 0 5 16 19 35 31 20 12 47 37 61 56 15 19 30 34 35 34 5 0 15 -13 24 -29z
m-4783 -53 c-2 -40 -7 -76 -11 -81 -4 -4 -32 -16 -62 -26 -49 -17 -89 -19
-456 -19 l-403 0 -52 -26 c-29 -15 -72 -38 -96 -52 -52 -32 -84 -27 -102 15
-24 58 33 152 119 195 87 44 137 50 340 40 262 -13 583 -8 646 10 85 24 83 26
77 -56z m2598 55 c27 -23 25 -49 -2 -57 -31 -8 -88 -8 -88 1 0 7 61 73 67 73
1 0 12 -8 23 -17z m178 8 c20 -12 10 -46 -15 -49 -14 -2 -23 3 -28 17 -11 35
12 52 43 32z m-1952 -63 c35 -28 64 -53 64 -54 0 -6 -98 -46 -159 -64 -37 -11
-143 -31 -238 -44 -184 -27 -220 -39 -270 -94 l-33 -36 -52 14 c-69 17 -88 30
-88 57 0 26 52 88 90 108 48 25 223 63 315 69 105 6 213 35 264 70 20 14 38
25 40 25 2 1 32 -22 67 -51z m3197 -2 c7 -17 -103 -125 -152 -151 -79 -40
-147 -56 -281 -65 -150 -9 -136 -13 -248 64 -71 48 -149 76 -219 76 -30 0 -52
14 -36 23 5 2 51 7 104 11 l97 7 48 -42 c81 -70 122 -84 243 -81 170 3 265 36
358 123 53 50 77 60 86 35z m-133 -22 c-30 -35 -170 -97 -170 -74 0 4 24 22
54 39 30 16 57 35 61 41 3 5 20 10 37 10 26 0 29 -2 18 -16z m-140 -3 c0 -5
-7 -12 -16 -15 -20 -8 -164 -8 -231 0 -100 12 -52 24 97 24 83 0 150 -4 150
-9z m1060 -35 c0 -32 -52 -80 -102 -96 -39 -11 -43 -11 -60 10 -32 39 -24 57
30 65 26 3 63 15 82 25 46 25 50 25 50 -4z m-232 -8 c5 -7 13 -32 17 -56 6
-38 5 -41 -12 -36 -47 18 -69 64 -41 92 15 15 23 15 36 0z m-2728 -17 c29 -6
18 -9 -65 -14 -198 -13 -267 -26 -415 -77 -139 -48 -149 -50 -252 -50 -60 0
-108 4 -108 8 0 14 97 92 133 107 21 9 91 17 178 21 79 3 162 10 184 15 46 9
292 3 345 -10z m1185 2 c18 -10 18 -11 -1 -17 -10 -3 -71 -12 -134 -21 -63 -8
-160 -21 -215 -29 -183 -27 -649 -54 -1060 -63 -184 -5 -208 -3 -197 10 30 36
129 48 697 87 83 6 222 15 310 21 88 6 189 15 225 19 86 11 351 6 375 -7z
m-8291 -127 l0 -127 -97 -3 -96 -3 32 24 c69 51 77 117 21 170 -20 19 -35 35
-33 37 8 5 154 34 164 32 5 -1 9 -57 9 -130z m6316 124 c12 -8 8 -16 -22 -47
-70 -72 -134 -102 -310 -145 -160 -39 -166 -40 -320 -36 -86 2 -160 6 -164 11
-10 10 44 66 75 78 14 6 90 19 170 29 189 26 274 46 358 86 54 26 81 32 133
33 36 0 72 -4 80 -9z m-980 -9 c0 -19 -99 -159 -126 -178 -87 -60 -222 -75
-451 -49 -242 27 -362 21 -538 -28 -61 -17 -85 -7 -85 34 0 34 43 71 143 121
l58 30 392 -1 c424 -2 434 -1 537 55 47 25 70 31 70 16z m4010 0 c0 -19 -69
-69 -105 -75 -80 -15 -58 29 31 64 55 21 74 24 74 11z m-9745 -10 c3 -5 -11
-22 -31 -37 l-36 -28 4 -68 c2 -37 2 -68 1 -68 -2 0 -12 15 -23 33 -25 40 -26
104 -2 133 30 37 74 55 87 35z m3725 -71 c74 -22 177 -48 228 -57 111 -19 153
-12 317 48 131 48 148 51 153 24 7 -44 26 -77 53 -91 37 -19 36 -27 -3 -57
-92 -69 -210 -107 -334 -107 -86 0 -366 37 -494 66 -101 22 -232 22 -290 -1
-66 -26 -113 -29 -148 -11 -46 24 -49 49 -11 97 39 50 94 85 179 116 91 33
175 27 350 -27z m5197 20 c62 -27 118 -72 101 -81 -22 -12 -239 -29 -508 -40
-140 -5 -320 -14 -400 -19 -190 -11 -519 -11 -695 0 -384 26 -376 26 -541 -30
-78 -27 -196 -48 -344 -60 -147 -12 -774 -24 -1295 -25 -203 0 -465 -4 -580
-9 -116 -5 -228 -6 -250 -2 l-39 8 62 31 62 31 23 -22 c30 -28 56 -28 180 4
93 24 113 26 232 20 336 -16 502 -18 560 -6 99 19 346 25 428 10 149 -28 288
-13 622 65 52 12 92 15 155 10 59 -5 120 -1 197 10 62 9 117 14 123 10 16 -10
406 -6 575 5 83 6 240 15 350 20 110 6 247 17 305 25 58 8 164 22 235 30 72 9
171 22 220 30 103 15 162 11 222 -15z m-8764 -42 c21 -16 40 -75 26 -83 -16
-10 -130 7 -145 22 -19 20 -18 50 4 62 24 14 95 13 115 -1z m5545 -104 c-3 -3
-19 -4 -34 -2 -27 3 -27 4 -9 21 16 17 19 17 33 3 9 -9 13 -18 10 -22z m-5539
-50 c9 -8 -125 -2 -149 6 -15 5 10 6 60 3 47 -3 87 -7 89 -9z m3419 -31 c-3
-15 -16 -18 -90 -19 -90 0 -116 6 -104 25 5 7 43 11 102 11 86 0 95 -2 92 -17z
M8633 2326 c-37 -17 -53 -43 -55 -89 -1 -41 12 -66 57 -106 56 -48 136 -40
182 19 16 19 16 82 1 115 -24 54 -125 87 -185 61z m137 -76 c40 -40 14 -104
-47 -116 -26 -5 -37 -1 -57 19 -31 32 -33 56 -5 91 26 33 79 36 109 6z M10780
2869 c-35 -14 -78 -57 -101 -101 -65 -127 44 -288 195 -288 80 0 248 30 269
48 14 13 17 33 17 127 0 126 -1 128 -69 144 -23 5 -59 21 -80 35 -21 15 -53
31 -72 36 -43 13 -126 12 -159 -1z m121 -51 l34 -13 -40 -5 c-68 -9 -134 0
-128 16 7 18 87 19 134 2z m18 -59 c77 -13 101 -24 101 -45 0 -12 -10 -14 -57
-9 -49 5 -113 1 -238 -17 -17 -3 -20 2 -18 27 1 16 10 36 20 42 21 16 105 17
192 2z m185 5 c13 -5 16 -24 16 -104 0 -112 -13 -137 -50 -100 -18 18 -20 28
-14 103 8 113 9 116 48 101z m-90 -114 c20 -19 -9 -30 -83 -30 -43 0 -100 -7
-127 -15 -65 -20 -81 -19 -89 5 -10 33 12 49 73 53 76 6 215 -2 226 -13z
m-134 -91 c-51 -20 -86 -24 -95 -9 -9 15 34 29 90 28 l49 -1 -44 -18z M3483
2810 c-146 -75 -83 -322 92 -361 56 -12 79 -8 180 35 35 15 80 26 106 26 28 0
51 6 58 14 17 20 24 211 8 224 -7 5 -37 12 -68 16 -31 3 -82 18 -114 32 -82
38 -203 44 -262 14z m411 -166 c-2 -42 -6 -79 -9 -85 -4 -5 -24 -9 -45 -9
l-38 0 1 83 c0 45 4 84 8 87 5 3 26 4 47 2 l39 -4 -3 -74z m-206 30 c12 -14
22 -35 22 -48 0 -38 -58 -74 -98 -61 -40 12 -58 114 -24 134 25 16 74 3 100
-25z M5105 2810 c-54 -27 -87 -78 -93 -143 -4 -46 0 -57 30 -102 19 -27 56
-65 82 -82 40 -27 58 -33 102 -33 59 0 148 29 206 68 33 21 43 23 76 15 78
-20 98 8 90 130 -6 94 -28 137 -69 137 -17 0 -39 -5 -49 -10 -14 -7 -45 -3
-116 15 -119 31 -204 32 -259 5z m446 -80 c4 -14 7 -55 8 -92 1 -59 -1 -68
-16 -68 -33 0 -40 15 -47 103 l-6 88 27 -3 c19 -2 29 -10 34 -28z m-246 -39
c12 -5 -12 -8 -60 -7 -44 0 -93 -3 -108 -7 -22 -6 -27 -5 -21 5 5 10 4 11 -7
1 -7 -7 -20 -13 -28 -12 -11 0 -12 2 -3 6 6 2 10 8 7 13 -6 10 194 11 220 1z
m-31 -61 c14 -5 26 -14 26 -19 0 -4 -43 -19 -96 -31 -89 -20 -98 -21 -112 -6
-25 25 -4 50 49 57 72 10 106 10 133 -1z M4420 2733 c-75 -36 -130 -40 -223
-14 -118 32 -120 32 -115 -32 8 -100 59 -142 208 -173 79 -16 88 -21 130 -64
25 -26 55 -53 68 -59 34 -18 114 0 207 47 44 22 104 48 133 58 94 33 89 72
-19 147 -165 114 -282 141 -389 90z m152 -23 c18 -13 28 -36 37 -76 15 -77 14
-179 -2 -192 -39 -33 -123 -19 -132 22 -2 11 -7 48 -10 81 -4 33 -16 77 -27
98 -24 49 -19 62 29 75 58 15 78 14 105 -8z m-296 -45 c61 -12 116 -25 122
-29 15 -9 36 -81 29 -99 -5 -12 -13 -12 -59 -1 -29 7 -80 18 -113 24 -74 15
-125 60 -125 110 0 27 3 31 18 25 9 -4 67 -17 128 -30z M1361 1601 c-30 -23
-64 -41 -75 -41 -38 1 -110 20 -160 42 l-48 22 -18 -22 c-22 -27 -14 -75 24
-132 34 -51 77 -82 156 -110 35 -12 94 -42 130 -66 86 -57 124 -62 225 -30 44
14 92 26 106 26 33 0 119 30 187 64 82 42 73 61 -75 155 -116 74 -237 121
-326 128 -72 5 -72 5 -126 -36z m155 -18 c27 -29 45 -82 64 -190 12 -67 12
-75 -4 -92 -23 -25 -72 -37 -90 -22 -8 7 -17 33 -21 59 -9 65 -36 122 -79 169
l-36 41 32 24 c61 46 99 49 134 11z m-296 -49 c49 -9 102 -24 118 -34 38 -23
82 -98 89 -150 7 -49 -4 -51 -48 -10 -19 17 -66 41 -109 55 -83 29 -107 45
-144 100 -30 43 -34 70 -10 61 8 -3 55 -13 104 -22z m475 -4 c-3 -5 -13 -10
-21 -10 -8 0 -14 5 -14 10 0 6 9 10 21 10 11 0 17 -4 14 -10z"/>
</g>
</svg>
