<?xml version="1.0" standalone="no"?>
<!DOCTYPE svg PUBLIC "-//W3C//DTD SVG 20010904//EN"
 "http://www.w3.org/TR/2001/REC-SVG-20010904/DTD/svg10.dtd">
<svg version="1.0" xmlns="http://www.w3.org/2000/svg"
 width="1183.000000pt" height="560.000000pt" viewBox="0 0 1183.000000 560.000000"
 preserveAspectRatio="xMidYMid meet">
<metadata>
Created by potrace 1.16, written by Peter Selinger 2001-2019
</metadata>
<g transform="translate(0.000000,560.000000) scale(0.100000,-0.100000)"
fill="#000000" stroke="none">
<path d="M0 2800 l0 -2800 5915 0 5915 0 0 2800 0 2800 -2355 0 -2355 0 0 -34
c0 -89 -63 -177 -153 -216 -176 -76 -397 39 -397 205 l0 45 -60 0 -60 0 0 -78
c0 -86 8 -102 52 -102 26 0 28 -3 28 -40 l0 -40 -145 0 -145 0 0 39 c0 36 3
40 28 43 27 3 27 3 30 91 l3 87 -91 0 -91 0 3 -87 c3 -88 3 -88 31 -91 24 -3
27 -7 27 -43 l0 -39 -145 0 -145 0 0 39 c0 37 2 40 33 43 l32 3 3 88 3 87 -96
0 -95 0 0 -74 c0 -94 5 -106 41 -106 27 0 29 -3 29 -40 l0 -40 -93 0 c-92 0
-94 1 -106 26 l-12 27 -22 -20 c-37 -34 -67 -45 -126 -45 -66 0 -96 10 -139
47 -37 31 -54 82 -42 126 11 38 26 57 65 81 30 18 29 18 -156 18 -213 0 -199
7 -199 -97 0 -78 4 -83 66 -83 l54 0 0 -40 0 -40 -175 0 -175 0 0 40 c0 37 2
40 28 40 44 0 52 16 52 102 l0 78 -70 0 c-68 0 -70 -1 -70 -25 l0 -25 -180 0
-180 0 6 -27 c20 -83 61 -117 137 -115 57 1 90 20 122 70 16 24 27 31 53 32
24 0 32 -4 32 -17 0 -42 -72 -125 -130 -149 -54 -23 -177 -20 -237 6 -90 39
-153 127 -153 216 0 31 -3 34 -30 34 -26 0 -30 -4 -30 -28 0 -50 -30 -131 -62
-168 -83 -94 -226 -103 -324 -21 l-32 27 -26 -35 c-23 -30 -33 -35 -67 -35
l-39 0 0 130 0 130 -55 0 -55 0 0 -32 c0 -91 -53 -168 -146 -214 -71 -35 -177
-37 -250 -5 -93 42 -153 123 -154 209 l0 42 -44 0 -44 0 8 -37 c22 -96 -31
-179 -141 -218 -52 -19 -176 -22 -235 -6 -54 15 -131 67 -149 102 -32 60 -6
142 48 152 12 2 -55 5 -148 6 l-170 1 -49 -92 c-46 -87 -353 -652 -474 -873
-30 -55 -83 -155 -118 -222 -36 -66 -72 -127 -80 -134 -23 -19 -69 9 -69 42 0
22 145 308 516 1021 71 135 129 249 129 252 0 3 -427 6 -950 6 l-950 0 0
-2800z m8710 65 c150 -20 249 -48 324 -90 113 -62 147 -67 460 -68 314 0 454
10 504 37 95 51 256 -49 278 -172 3 -20 19 -50 34 -67 40 -44 50 -68 50 -122
0 -67 -26 -112 -109 -190 -63 -57 -101 -106 -101 -129 0 -4 40 -3 88 0 107 9
233 -10 375 -54 54 -17 102 -28 107 -25 6 3 10 15 10 26 0 47 61 119 100 119
10 0 27 -16 39 -35 11 -20 36 -42 53 -50 45 -19 100 -61 115 -88 30 -53 6
-131 -64 -208 -35 -39 -36 -41 -21 -67 39 -66 31 -146 -20 -195 -108 -103
-312 -82 -312 33 0 40 11 58 54 85 28 17 29 18 10 33 -47 36 -213 101 -260
102 -6 0 -32 -35 -57 -77 -49 -85 -144 -204 -180 -228 -29 -19 -90 -29 -287
-50 -85 -9 -259 -27 -387 -41 -156 -16 -291 -24 -415 -24 -100 0 -223 -5 -273
-10 -179 -20 -682 -29 -1005 -19 l-315 10 -135 -40 c-247 -72 -221 -69 -855
-76 -845 -8 -1237 -16 -1312 -25 -85 -11 -700 5 -788 20 -42 7 -219 6 -575 -1
-283 -7 -666 -12 -850 -11 -440 1 -445 2 -689 123 -102 51 -240 129 -306 172
-147 98 -317 180 -495 240 -241 82 -230 80 -793 80 -317 0 -502 -4 -508 -10
-7 -7 9 -26 47 -58 109 -94 139 -160 90 -203 -89 -77 -175 -120 -214 -106
l-27 10 1 146 c1 125 4 151 20 179 39 66 49 68 380 80 320 11 595 2 767 -27
192 -32 584 -194 764 -315 39 -27 120 -73 180 -102 59 -30 138 -70 174 -90
127 -71 181 -79 554 -81 182 -1 421 1 532 4 l202 5 -32 38 -32 39 -75 -15
c-48 -10 -174 -19 -345 -24 -310 -9 -284 -9 -395 1 -168 15 -195 22 -287 76
-48 29 -139 80 -203 115 -63 35 -167 93 -230 129 -63 36 -164 87 -223 112
-116 49 -375 120 -472 129 -147 15 -212 28 -267 56 -70 35 -114 37 -241 8 -79
-18 -112 -20 -237 -15 -80 3 -165 11 -190 16 -42 11 -214 16 -270 8 -33 -4
-40 27 -8 38 38 12 186 7 293 -11 58 -10 155 -17 230 -17 112 0 141 3 214 26
47 14 97 26 112 26 30 0 52 21 43 41 -3 8 -26 32 -50 53 l-44 39 -103 -29
c-85 -24 -121 -28 -217 -28 -99 0 -130 4 -225 31 -95 27 -118 30 -165 23 -87
-13 -102 -12 -98 7 7 40 136 43 273 7 218 -58 496 -21 564 74 11 16 34 35 51
42 36 15 37 21 6 57 -32 37 -74 35 -202 -8 -87 -30 -111 -34 -199 -33 -84 0
-117 5 -209 33 -100 31 -116 33 -192 27 -70 -5 -84 -4 -84 9 0 44 118 46 284
5 147 -37 247 -39 362 -9 70 19 99 25 181 44 14 3 29 21 41 48 11 23 33 55 51
71 17 17 31 36 31 44 0 20 -111 6 -235 -29 -126 -37 -259 -40 -415 -9 -124 24
-180 25 -243 6 -38 -11 -48 -12 -57 -1 -9 11 -5 18 16 31 37 25 177 25 313 0
133 -24 284 -18 426 17 55 14 114 27 130 29 26 3 30 7 33 38 4 61 -5 65 -125
65 -69 -1 -137 -7 -187 -19 -69 -16 -97 -18 -205 -10 -69 5 -192 8 -274 7
-118 -1 -147 2 -147 13 0 7 19 18 43 25 40 11 132 9 397 -7 73 -4 124 -1 220
16 68 12 156 21 195 20 38 -1 75 -1 81 -1 14 1 -5 82 -21 93 -9 7 -832 2 -895
-4 -35 -4 -35 33 0 42 48 13 871 10 1178 -4 186 -9 390 -12 519 -9 184 5 220
4 275 -12 35 -9 74 -25 88 -35 32 -23 100 -46 179 -60 34 -6 92 -20 128 -31
35 -11 69 -19 74 -17 6 2 -4 21 -21 43 -42 52 -53 81 -40 105 18 33 45 33 98
-1 68 -42 119 -46 216 -19 94 26 114 23 225 -39 91 -50 191 -139 191 -171 0
-38 -154 -90 -265 -90 -24 0 -46 -4 -49 -9 -7 -11 94 -56 155 -70 25 -6 172
-13 325 -15 197 -3 296 -9 337 -19 43 -11 93 -13 180 -10 102 5 149 1 287 -22
145 -24 183 -26 315 -22 87 3 196 14 259 26 121 23 215 27 280 10 37 -9 58 -7
130 11 81 20 105 21 443 18 337 -2 463 4 463 22 0 4 -33 15 -72 25 -116 28
-292 111 -342 161 -66 66 -107 167 -73 180 7 2 48 -12 92 -32 79 -36 79 -36
149 -25 46 7 102 27 161 56 50 24 101 47 115 50 55 13 324 -101 392 -166 41
-39 42 -40 22 -58 -10 -10 -40 -25 -65 -35 -26 -9 -75 -35 -110 -57 -35 -22
-93 -53 -128 -70 -43 -20 -60 -34 -54 -40 7 -7 45 1 114 26 75 26 127 37 189
41 61 4 98 12 130 29 25 12 69 28 98 34 29 6 79 24 111 41 183 92 560 218 750
250 68 12 154 28 190 36 165 39 230 43 516 39 180 -2 321 -9 395 -20z m2235
-1 c20 -8 54 -26 74 -39 20 -12 53 -26 73 -29 61 -11 68 -24 68 -137 0 -119
-13 -149 -65 -149 -18 0 -68 -7 -111 -16 -43 -9 -99 -14 -126 -12 -111 11
-205 117 -195 221 12 130 158 213 282 161z m-7230 -61 c22 -8 56 -21 75 -28
19 -8 49 -14 67 -15 17 0 43 -4 57 -10 26 -10 26 -10 20 -97 -8 -136 -7 -133
-60 -133 -31 0 -73 -12 -127 -36 -137 -60 -236 -42 -300 54 -80 121 -45 253
76 283 41 10 141 1 192 -18z m1660 -3 c61 -18 76 -19 117 -8 42 10 50 10 67
-6 38 -35 55 -192 25 -235 -15 -21 -21 -22 -71 -16 -49 6 -59 4 -92 -19 -50
-35 -141 -66 -191 -66 -55 0 -109 29 -160 87 -65 74 -76 123 -41 191 23 45 45
66 91 87 45 20 157 14 255 -15z m-714 -77 c93 -43 209 -122 222 -150 16 -36 2
-50 -88 -87 -44 -18 -104 -45 -134 -60 -33 -17 -78 -30 -113 -33 l-57 -6 -56
56 c-48 48 -64 57 -113 68 -95 19 -156 40 -181 63 -29 26 -60 92 -61 129 0 33
21 35 114 11 83 -22 167 -15 236 19 73 35 141 33 231 -10z m-3111 -1099 c77
-17 200 -76 307 -147 73 -49 91 -71 73 -92 -19 -23 -145 -74 -220 -90 -41 -8
-106 -24 -144 -34 -85 -23 -117 -17 -197 38 -33 22 -82 47 -107 57 -26 9 -59
21 -74 26 -64 23 -142 133 -136 191 4 39 31 46 78 22 18 -9 62 -23 98 -30 67
-14 67 -14 106 13 103 72 103 72 216 46z m-633 -64 c9 -18 10 -44 4 -86 -5
-35 -5 -81 0 -109 9 -50 -2 -118 -22 -131 -6 -4 -35 -1 -63 6 -45 10 -64 10
-124 -4 -85 -19 -193 -20 -245 -2 -57 21 -107 64 -128 112 -16 36 -18 50 -9
92 13 56 34 84 88 111 58 29 102 33 191 16 74 -14 88 -14 143 0 34 8 64 18 67
21 3 3 23 4 46 2 31 -2 42 -8 52 -28z"/>
<path d="M8120 2848 c-200 -25 -478 -158 -511 -246 -14 -38 6 -65 44 -59 31 4
207 67 392 139 157 61 339 118 378 118 21 0 58 5 82 11 92 23 248 -13 460
-106 164 -73 311 -98 334 -57 6 9 11 11 11 5 0 -7 5 -13 11 -13 5 0 7 5 3 12
-4 7 -3 8 4 4 14 -8 115 4 107 13 -4 3 -59 6 -123 6 -127 1 -126 0 -349 99
-101 45 -212 64 -458 76 -213 11 -284 11 -385 -2z"/>
<path d="M6120 2771 c-62 -26 -71 -43 -38 -78 40 -42 48 -73 43 -172 -5 -83
-4 -89 15 -94 24 -6 75 7 96 24 11 9 14 45 14 165 0 141 -2 154 -19 164 -28
14 -59 12 -111 -9z"/>
<path d="M8462 2779 c-83 -10 -167 -35 -186 -55 -20 -19 -20 -35 -2 -60 14
-19 15 -19 63 0 102 39 163 48 298 43 145 -5 221 -26 310 -86 l48 -32 25 24
25 25 -80 41 c-94 47 -212 86 -303 101 -73 11 -107 11 -198 -1z"/>
<path d="M1123 2773 c-18 -6 -16 -38 2 -53 12 -10 27 -10 76 0 99 21 264 8
493 -40 109 -23 237 -53 285 -67 138 -41 162 -45 177 -32 8 6 14 22 14 34 0
22 21 44 66 71 29 17 4 39 -74 65 -65 22 -81 22 -547 24 -264 1 -486 0 -492
-2z"/>
<path d="M7540 2751 c-261 -54 -712 -222 -753 -282 -22 -30 -6 -49 41 -49 24
0 60 15 111 44 105 61 162 76 296 76 169 0 278 36 374 124 25 23 70 57 99 75
28 18 52 35 52 37 0 11 -100 0 -220 -25z"/>
<path d="M2600 2742 c0 -27 64 -81 175 -148 84 -50 115 -63 115 -48 0 29 -24
152 -32 162 -6 7 -33 12 -62 12 -48 0 -138 18 -178 35 -14 5 -18 2 -18 -13z"/>
<path d="M2896 2752 c-2 -4 2 -34 10 -67 7 -33 14 -80 14 -105 0 -53 13 -70
52 -70 l28 0 0 115 c0 103 -2 115 -19 125 -23 12 -78 13 -85 2z"/>
<path d="M6290 2720 c6 -11 13 -20 15 -20 3 0 5 9 5 20 0 11 -7 20 -15 20 -13
0 -14 -4 -5 -20z"/>
<path d="M1236 2700 c-57 -10 -95 -35 -114 -74 -12 -24 -12 -34 0 -64 20 -54
67 -68 171 -52 169 27 452 -29 750 -149 94 -38 118 -39 154 -5 15 15 47 35 71
45 23 10 42 21 42 23 0 3 -13 12 -28 20 -15 8 -50 32 -76 55 -32 26 -64 42
-90 46 -23 4 -88 22 -146 40 -122 38 -148 44 -375 84 -199 35 -291 43 -359 31z"/>
<path d="M5680 2701 c0 -21 51 -80 106 -122 66 -49 221 -120 269 -122 29 -2
30 0 39 54 11 68 2 118 -25 153 -24 31 -69 34 -161 12 -61 -15 -114 -9 -169
19 -31 17 -59 20 -59 6z"/>
<path d="M9995 2696 c-45 -19 -58 -42 -59 -98 -1 -43 3 -53 27 -74 32 -28 63
-31 95 -8 24 16 30 59 10 67 -7 2 -27 2 -44 0 -26 -4 -33 -1 -39 16 -4 14 -1
31 9 46 44 67 166 26 213 -72 18 -39 39 -38 36 1 -2 34 -34 74 -85 109 -46 30
-111 36 -163 13z"/>
<path d="M8578 2683 c-33 -5 -32 -1 -13 -47 13 -32 20 -37 43 -34 24 3 27 7
27 43 0 42 -6 46 -57 38z"/>
<path d="M2272 2668 c-46 -16 -82 -52 -82 -84 0 -39 65 -97 126 -113 210 -54
264 -78 423 -186 61 -41 133 -84 160 -95 86 -33 248 -44 481 -30 l205 12 60
57 c33 31 75 63 93 70 17 7 32 17 32 21 0 25 -79 34 -370 40 -368 8 -331 -2
-680 182 -199 105 -368 153 -448 126z"/>
<path d="M8456 2671 c-16 -3 -31 -11 -33 -17 -4 -11 63 -104 76 -104 10 0 51
39 51 49 0 5 -7 25 -15 45 -16 37 -23 40 -79 27z"/>
<path d="M8670 2656 c0 -44 10 -56 46 -56 33 0 34 1 34 40 l0 40 -40 0 c-36 0
-40 -3 -40 -24z"/>
<path d="M9821 2658 c-4 -13 -8 -45 -7 -73 1 -49 2 -50 31 -50 l30 0 0 70 c0
65 -2 70 -23 73 -16 2 -25 -3 -31 -20z"/>
<path d="M8095 2631 c-159 -62 -398 -165 -422 -182 -46 -32 -65 -98 -40 -133
13 -17 18 -16 88 22 85 46 184 87 324 133 90 29 102 36 155 92 52 54 57 63 47
84 -14 31 -34 29 -152 -16z"/>
<path d="M8787 2653 c-26 -26 14 -82 49 -69 25 10 17 55 -12 66 -30 12 -29 12
-37 3z"/>
<path d="M8323 2620 c-18 -11 -33 -22 -33 -24 0 -2 29 -28 65 -56 66 -53 85
-57 104 -23 7 15 1 29 -31 71 -22 29 -48 52 -57 52 -9 0 -31 -9 -48 -20z"/>
<path d="M9675 2619 c-135 -11 -342 -70 -525 -148 -80 -34 -85 -38 -85 -66 0
-40 6 -39 206 33 180 64 286 90 419 100 l85 7 3 36 c4 45 -1 47 -103 38z"/>
<path d="M8871 2598 c-9 -25 -1 -47 23 -68 31 -25 59 26 40 74 -9 25 -53 20
-63 -6z"/>
<path d="M9034 2595 c-20 -20 -23 -28 -14 -45 6 -11 16 -20 23 -20 17 0 170
51 180 60 9 8 -90 30 -135 30 -17 0 -39 -10 -54 -25z"/>
<path d="M8578 2566 c-76 -27 -179 -128 -202 -199 -42 -124 -2 -219 164 -390
84 -86 86 -87 134 -87 142 0 309 87 360 187 29 57 16 133 -23 133 -17 0 -18
-5 -11 -37 16 -68 -33 -133 -143 -190 -43 -23 -65 -27 -130 -28 l-79 0 -59 63
c-32 34 -68 80 -79 103 -12 22 -37 58 -57 80 -30 33 -37 50 -41 92 -6 76 22
132 90 185 81 62 132 77 215 62 113 -19 149 -48 185 -149 29 -80 54 -96 45
-27 -13 89 -76 172 -149 194 -59 18 -180 22 -220 8z"/>
<path d="M9210 2555 c-61 -22 -96 -34 -164 -58 -35 -13 -54 -55 -65 -145 -10
-76 -4 -91 41 -121 18 -11 41 -26 50 -33 31 -23 32 2 1 35 -22 23 -33 45 -36
77 -3 25 -8 57 -12 73 -6 23 -2 33 29 61 36 35 64 47 195 88 41 13 76 29 79
36 6 19 -45 14 -118 -13z"/>
<path d="M8245 2562 c-14 -9 -45 -59 -45 -70 0 -12 165 -56 179 -48 22 14 10
34 -48 80 -61 47 -69 51 -86 38z"/>
<path d="M7461 2536 c-36 -12 -66 -27 -68 -32 -2 -6 18 -29 44 -51 94 -78 127
-182 104 -319 -21 -120 -80 -190 -201 -235 -90 -34 -168 -17 -239 53 -100 98
-73 250 49 275 34 6 57 -8 71 -44 10 -28 40 -30 62 -5 24 26 21 43 -14 92
l-31 43 -64 -6 c-118 -9 -171 -68 -181 -200 -5 -70 -4 -74 29 -121 75 -109
172 -145 336 -126 187 21 271 46 420 122 75 39 181 92 235 120 72 37 97 54 97
69 0 15 -7 19 -30 19 -39 0 -116 -39 -254 -129 -60 -39 -119 -72 -130 -73 -73
-5 -96 17 -96 89 0 30 6 66 14 81 16 31 74 80 126 107 19 10 49 28 65 40 17
12 48 28 70 35 49 16 139 60 133 66 -10 9 -118 -31 -213 -79 -128 -64 -160
-72 -184 -45 -28 29 -32 77 -11 124 10 23 23 45 29 48 15 10 -3 43 -27 51 -11
3 -24 17 -30 30 -14 30 -28 30 -111 1z"/>
<path d="M8956 2524 c-3 -9 -6 -29 -6 -46 0 -23 4 -29 18 -26 23 4 31 88 9 88
-8 0 -18 -7 -21 -16z"/>
<path d="M8575 2501 c-54 -24 -100 -72 -120 -124 -17 -45 -17 -118 0 -123 6
-2 21 20 35 47 36 74 107 135 175 149 44 9 66 8 116 -5 34 -8 64 -13 67 -10 9
8 -31 46 -70 66 -49 25 -148 25 -203 0z"/>
<path d="M10088 2496 c-15 -13 -32 -26 -39 -28 -20 -7 0 -28 26 -28 24 0 68
45 62 64 -6 18 -22 16 -49 -8z"/>
<path d="M7160 2493 c1 -26 32 -84 51 -96 29 -18 49 -1 49 42 0 63 -7 71 -56
71 -35 0 -44 -3 -44 -17z"/>
<path d="M10185 2500 c-8 -13 -9 -13 32 -34 68 -35 75 -112 14 -170 -24 -23
-52 -33 -165 -57 -75 -16 -201 -36 -279 -45 -239 -26 -499 -84 -593 -132 -21
-11 -70 -43 -108 -71 -101 -75 -142 -90 -326 -122 -91 -15 -181 -33 -200 -39
-19 -5 -62 -10 -96 -10 -54 0 -66 4 -100 31 -82 66 -146 82 -223 54 -88 -31
-134 -84 -133 -156 1 -50 21 -86 75 -136 49 -45 109 -64 200 -62 93 2 111 14
32 23 -129 13 -186 41 -220 107 -33 62 -3 138 68 173 57 27 100 15 159 -45 27
-28 56 -49 68 -49 84 0 277 26 340 46 41 12 116 32 167 43 106 23 125 32 245
113 125 85 300 142 533 173 66 9 145 22 175 30 30 7 109 21 175 30 126 17 215
43 248 72 60 54 63 179 4 217 -33 22 -83 31 -92 16z"/>
<path d="M7044 2490 c-36 -14 -38 -30 -8 -61 34 -36 54 -42 88 -30 33 13 34
40 1 75 -25 27 -45 31 -81 16z"/>
<path d="M7290 2439 c0 -63 12 -99 34 -99 17 0 52 39 65 73 10 26 8 32 -20 58
-17 16 -42 29 -55 29 -23 0 -24 -3 -24 -61z"/>
<path d="M9515 2485 c-83 -15 -338 -98 -383 -125 -56 -34 -76 -89 -37 -104 7
-2 40 8 73 24 32 15 90 38 128 50 38 12 85 28 105 35 44 16 203 122 192 128
-4 2 -39 -1 -78 -8z"/>
<path d="M9696 2487 c-26 -19 -5 -70 27 -65 37 5 34 77 -4 78 -3 0 -13 -6 -23
-13z"/>
<path d="M9784 2486 c-3 -8 -4 -25 -2 -38 2 -18 9 -23 33 -23 28 0 30 3 30 35
0 31 -3 35 -28 38 -17 2 -29 -2 -33 -12z"/>
<path d="M1320 2481 c-14 -5 -54 -9 -88 -10 -36 -1 -79 -8 -98 -17 -56 -27
-100 -120 -72 -154 44 -54 91 -61 189 -29 54 17 81 20 167 16 56 -3 108 -9
115 -14 6 -6 41 -16 77 -23 112 -22 328 -89 427 -131 52 -22 101 -38 109 -35
8 3 23 20 34 38 l19 32 -24 27 c-15 14 -29 44 -33 69 l-7 44 -100 39 c-165 64
-267 95 -401 122 -139 28 -274 39 -314 26z"/>
<path d="M6687 2473 c-14 -13 -6 -31 16 -37 21 -5 47 14 47 36 0 10 -54 11
-63 1z"/>
<path d="M9890 2465 c-20 -24 -8 -50 24 -50 36 0 56 26 37 49 -17 20 -45 21
-61 1z"/>
<path d="M9612 2453 c-13 -26 -4 -43 24 -43 22 0 25 4 22 27 -4 33 -32 43 -46
16z"/>
<path d="M8147 2432 c-10 -10 -17 -28 -17 -38 0 -19 7 -20 108 -19 98 1 107 2
107 20 0 14 -14 23 -60 37 -77 23 -118 23 -138 0z"/>
<path d="M6915 2417 l-28 -23 46 -27 c55 -32 68 -33 92 -7 18 20 18 21 -2 48
-27 37 -72 41 -108 9z"/>
<path d="M10119 2421 c-20 -17 -22 -22 -11 -38 6 -10 20 -33 29 -50 26 -51 66
-38 92 29 8 22 6 31 -10 52 -25 32 -67 34 -100 7z"/>
<path d="M6447 2419 c-85 -12 -461 -198 -481 -238 -47 -91 72 -109 233 -36 45
20 102 42 128 50 77 23 231 36 330 29 l91 -7 36 79 c20 43 35 83 32 89 -2 6
-53 17 -112 23 -166 19 -194 20 -257 11z"/>
<path d="M8635 2415 c-45 -16 -85 -59 -116 -123 l-21 -43 22 -67 c27 -80 61
-137 92 -153 38 -21 133 -13 191 15 65 31 78 42 111 90 47 69 30 142 -54 227
-64 67 -139 84 -225 54z m133 -105 c67 -41 80 -136 26 -179 -61 -48 -146 -30
-192 39 -29 43 -25 100 9 136 29 31 108 33 157 4z"/>
<path d="M8685 2268 c-50 -27 -60 -80 -22 -116 30 -28 69 -28 101 1 40 36 42
63 7 97 -31 32 -53 36 -86 18z"/>
<path d="M9982 2418 c-20 -20 -14 -55 10 -61 25 -7 58 8 58 27 0 15 -31 46
-46 46 -6 0 -15 -5 -22 -12z"/>
<path d="M7398 2367 c-45 -86 -32 -124 30 -87 38 23 55 54 46 83 -7 23 -33 57
-43 57 -3 0 -18 -24 -33 -53z"/>
<path d="M9537 2413 c-12 -11 -7 -43 6 -43 22 0 51 26 43 38 -8 13 -39 16 -49
5z"/>
<path d="M2341 2399 c-99 -19 -186 -107 -165 -166 15 -42 47 -53 129 -43 120
15 164 3 254 -75 84 -72 173 -133 237 -161 56 -25 67 -27 234 -27 264 -1 554
15 574 32 21 18 20 45 -3 90 -10 20 -24 49 -30 65 -10 25 -16 28 -41 22 -16
-3 -132 -8 -257 -12 -214 -6 -233 -5 -311 15 -104 27 -153 52 -294 148 -161
109 -228 132 -327 112z"/>
<path d="M9699 2390 c-62 -11 -138 -45 -172 -78 -32 -30 -80 -116 -70 -126 11
-10 51 -7 155 15 55 11 164 28 241 37 84 10 142 22 144 29 7 20 -55 80 -104
101 -59 24 -133 33 -194 22z"/>
<path d="M8045 2378 c-11 -7 -67 -33 -125 -58 -129 -56 -245 -131 -271 -173
-48 -79 -9 -148 62 -111 19 9 74 44 122 76 87 58 200 118 224 118 21 0 33 36
33 99 0 64 -6 71 -45 49z"/>
<path d="M9468 2366 c-23 -17 -23 -33 1 -45 22 -12 45 8 39 35 -4 23 -19 26
-40 10z"/>
<path d="M7090 2363 c-61 -23 -139 -127 -166 -221 -19 -64 -10 -111 39 -205
37 -71 92 -120 166 -148 49 -19 70 -21 171 -16 215 11 423 72 553 161 67 46
148 90 239 130 43 18 56 29 52 40 -3 9 -13 16 -21 16 -8 0 -101 -46 -206 -103
-282 -151 -278 -149 -486 -177 -185 -26 -198 -25 -278 7 -85 34 -163 107 -181
171 -20 65 7 210 47 256 27 32 94 56 160 57 66 2 84 12 52 28 -20 11 -115 14
-141 4z"/>
<path d="M6010 2348 c-42 -5 -209 -7 -377 -4 -278 5 -309 4 -395 -15 -119 -26
-159 -45 -235 -110 -79 -68 -97 -93 -89 -124 11 -42 46 -41 127 3 130 70 162
77 359 77 96 0 254 -4 350 -8 l175 -9 15 34 c13 28 33 42 133 90 64 31 117 62
117 68 0 12 -74 11 -180 -2z"/>
<path d="M6830 2318 c-17 -23 -29 -46 -27 -52 5 -14 137 -8 155 6 24 20 13 47
-28 68 -55 28 -66 26 -100 -22z"/>
<path d="M10040 2331 c-20 -38 -13 -51 30 -51 41 0 50 13 34 54 -9 22 -51 20
-64 -3z"/>
<path d="M8163 2333 c-30 -4 -31 -6 -35 -55 -4 -66 2 -74 43 -52 19 10 61 27
94 39 61 21 82 48 53 66 -13 9 -94 9 -155 2z"/>
<path d="M3855 2316 c-91 -22 -167 -72 -216 -139 -33 -46 -36 -82 -10 -114 25
-30 33 -29 99 12 82 50 165 76 262 82 70 4 113 0 249 -27 153 -30 175 -32 305
-27 108 4 164 11 241 32 104 27 136 47 230 140 l40 40 -79 3 c-44 2 -122 -4
-175 -13 -53 -9 -159 -19 -236 -22 -119 -4 -166 -1 -317 21 -189 28 -313 32
-393 12z"/>
<path d="M7300 2300 c0 -8 9 -28 20 -45 25 -37 25 -53 1 -84 -13 -17 -32 -26
-62 -30 -31 -4 -45 -11 -47 -24 -10 -49 71 -65 113 -23 29 29 50 95 41 130 -8
32 -65 98 -66 76z"/>
<path d="M9405 2294 c-21 -22 -14 -38 18 -42 24 -3 27 0 27 27 0 35 -19 41
-45 15z"/>
<path d="M7447 2253 c-42 -31 -48 -40 -45 -67 3 -29 6 -31 44 -34 29 -2 45 2
54 14 16 19 20 115 5 120 -5 2 -32 -13 -58 -33z"/>
<path d="M9225 2239 c-103 -59 -135 -85 -135 -110 0 -31 17 -30 112 8 104 41
162 87 156 125 -5 37 -37 32 -133 -23z"/>
<path d="M1240 2233 c-135 -33 -161 -42 -197 -70 -43 -31 -43 -63 -2 -98 l32
-26 146 7 c171 8 226 -3 442 -86 98 -38 154 -53 236 -64 60 -8 139 -24 176
-36 74 -23 97 -21 97 7 0 10 7 31 15 46 13 26 13 32 -4 65 -11 20 -30 47 -43
59 -80 73 -609 227 -763 222 -22 -1 -83 -13 -135 -26z"/>
<path d="M8236 2215 c-88 -36 -93 -43 -56 -93 16 -23 38 -42 48 -42 22 0 105
114 100 138 -5 25 -27 24 -92 -3z"/>
<path d="M6845 2222 c-27 -2 -55 -8 -62 -14 -13 -10 -19 -98 -7 -98 4 0 33 10
65 21 45 17 60 27 68 50 13 37 0 45 -64 41z"/>
<path d="M9372 2208 c-21 -21 -14 -48 12 -48 29 0 49 22 40 44 -7 19 -35 21
-52 4z"/>
<path d="M6409 2189 c-31 -4 -82 -17 -113 -28 -59 -21 -150 -81 -159 -106 -4
-8 -40 -39 -82 -70 -42 -31 -79 -63 -82 -71 -8 -22 16 -44 51 -44 58 0 97 19
159 76 111 103 239 142 429 131 111 -7 118 -3 121 76 l2 42 -135 1 c-74 1
-160 -2 -191 -7z"/>
<path d="M7122 2190 c-38 -16 -74 -140 -40 -140 19 0 77 50 93 80 18 36 18 35
-1 54 -17 18 -20 18 -52 6z"/>
<path d="M2320 2160 c-83 -11 -94 -17 -119 -61 -27 -47 -23 -73 14 -114 25
-26 30 -27 80 -21 102 12 216 -42 313 -149 53 -58 121 -90 242 -111 115 -20
207 -15 410 20 80 13 189 28 243 32 53 4 97 10 97 14 0 4 -7 13 -15 20 -8 7
-21 33 -29 59 l-13 46 -164 -1 c-90 -1 -202 -5 -249 -11 -53 -6 -126 -6 -194
0 -91 7 -120 14 -170 39 -80 40 -138 81 -206 143 -100 92 -142 108 -240 95z"/>
<path d="M8306 2104 c-38 -57 -38 -67 1 -78 29 -9 73 33 73 69 0 29 -16 65
-29 65 -4 0 -25 -25 -45 -56z"/>
<path d="M9765 2124 c-115 -19 -257 -46 -315 -60 -109 -26 -261 -93 -315 -138
l-30 -25 74 -1 c56 0 87 6 130 24 31 14 68 27 83 30 18 4 37 21 53 46 29 46
54 55 127 45 29 -4 83 -7 119 -8 57 -2 71 2 108 26 49 32 57 31 40 -7 -18 -39
-6 -41 52 -12 60 30 98 32 159 11 23 -8 46 -12 51 -9 18 11 9 45 -16 56 -45
20 -31 38 25 31 42 -5 50 -3 50 11 0 26 -155 19 -395 -20z"/>
<path d="M5235 2136 c-80 -19 -139 -42 -205 -84 -104 -65 -140 -112 -140 -181
0 -97 29 -97 163 1 122 90 208 105 417 73 58 -9 169 -15 282 -15 181 0 187 1
215 23 15 13 54 40 86 60 31 20 57 41 57 47 0 6 -30 10 -72 10 -79 0 -89 4
-106 36 -11 20 -21 21 -239 27 -125 4 -266 9 -313 12 -54 3 -107 0 -145 -9z"/>
<path d="M3859 2107 c-37 -13 -86 -36 -109 -52 -52 -36 -170 -162 -170 -182 0
-22 39 -73 56 -73 7 0 43 20 79 45 75 51 188 90 291 100 76 8 183 -3 354 -36
154 -30 306 -28 391 4 84 32 142 61 158 81 11 13 10 21 -5 43 -11 16 -25 41
-31 57 -8 16 -18 26 -26 23 -7 -3 -51 -13 -98 -23 -133 -30 -367 -25 -528 9
-159 35 -269 36 -362 4z"/>
<path d="M8927 2094 c-39 -40 -49 -61 -19 -45 27 15 65 58 60 71 -2 6 -20 -6
-41 -26z"/>
<path d="M6810 2087 c-40 -20 -45 -26 -48 -60 -2 -20 1 -37 6 -37 6 0 34 16
63 36 37 25 54 43 54 57 0 29 -21 30 -75 4z"/>
<path d="M7377 2092 c-24 -27 -21 -59 8 -78 34 -22 69 -11 94 30 34 55 29 66
-32 66 -40 0 -58 -5 -70 -18z"/>
<path d="M10788 2068 c-22 -34 -30 -65 -19 -73 10 -5 91 30 91 40 0 2 -5 16
-12 30 -14 31 -41 32 -60 3z"/>
<path d="M9069 2068 c-21 -18 -52 -69 -45 -75 6 -7 69 32 87 53 10 13 10 17
-2 25 -19 12 -22 11 -40 -3z"/>
<path d="M7132 2047 c-30 -32 -28 -71 4 -96 15 -12 35 -21 46 -21 17 0 19 7
16 68 -3 59 -6 67 -23 70 -12 2 -30 -8 -43 -21z"/>
<path d="M8401 2052 c-14 -26 -7 -42 19 -42 28 0 32 15 11 41 l-18 23 -12 -22z"/>
<path d="M6435 2040 c-148 -22 -276 -117 -237 -176 13 -19 51 -35 74 -30 13 3
77 17 143 32 72 15 159 27 218 29 54 1 103 7 108 12 9 9 -15 111 -29 124 -11
10 -223 17 -277 9z"/>
<path d="M8035 2005 c-96 -50 -226 -132 -237 -148 -11 -18 9 -44 43 -56 39
-14 79 4 193 84 43 30 96 60 119 66 54 14 116 -2 187 -48 41 -28 69 -38 115
-42 55 -6 119 0 131 11 2 3 -22 31 -53 62 l-57 57 -101 2 c-95 2 -104 4 -134
30 -50 42 -101 37 -206 -18z"/>
<path d="M7237 2033 c-11 -10 -8 -82 3 -104 14 -25 52 -24 109 2 l45 20 -44
44 c-34 34 -52 45 -75 45 -18 0 -35 -3 -38 -7z"/>
<path d="M10268 2019 c-24 -14 -23 -56 1 -69 11 -5 40 -10 65 -10 42 0 46 2
46 24 0 26 -23 56 -43 56 -7 0 -21 2 -32 5 -11 3 -28 0 -37 -6z"/>
<path d="M1178 2007 c-37 -7 -70 -15 -73 -19 -3 -3 -8 -21 -11 -40 -6 -33 -4
-36 37 -55 24 -11 76 -25 114 -31 39 -6 106 -16 150 -22 107 -16 350 -84 455
-127 47 -19 126 -57 177 -84 50 -27 96 -49 102 -49 6 0 11 16 11 35 0 26 9 45
36 75 21 23 34 46 31 54 -18 47 -176 110 -313 126 -111 12 -190 32 -254 65
-131 67 -328 97 -462 72z"/>
<path d="M6844 2001 c-62 -38 -83 -101 -46 -134 27 -25 35 -22 80 35 42 51 46
72 20 106 -14 16 -17 15 -54 -7z"/>
<path d="M9482 2008 c-21 -21 -13 -46 27 -77 22 -18 48 -48 58 -69 22 -44 40
-50 76 -22 24 19 27 28 27 80 0 78 -25 100 -114 100 -35 0 -67 -5 -74 -12z"/>
<path d="M9897 2013 c-16 -4 -17 -12 -12 -56 6 -51 5 -53 -45 -110 -74 -87
-65 -108 27 -65 51 24 188 148 198 179 3 10 1 27 -5 39 -9 17 -20 20 -78 19
-37 -1 -75 -3 -85 -6z"/>
<path d="M10114 1995 c-11 -43 1 -57 48 -53 36 3 44 7 46 26 5 33 -15 52 -54
52 -28 0 -35 -5 -40 -25z"/>
<path d="M10415 2010 c-11 -17 4 -65 24 -77 10 -6 34 -15 54 -18 30 -6 36 -4
42 14 8 27 -2 59 -23 70 -30 15 -90 22 -97 11z"/>
<path d="M9734 2000 c-26 -10 -35 -30 -27 -60 5 -19 10 -21 40 -15 59 11 83
23 83 44 0 12 -11 23 -31 30 -37 13 -37 13 -65 1z"/>
<path d="M10838 1985 c-26 -14 -49 -29 -52 -34 -8 -13 39 -59 69 -67 31 -8 61
15 80 61 16 37 4 65 -28 65 -12 -1 -43 -12 -69 -25z"/>
<path d="M10577 1973 c-4 -3 -7 -21 -7 -38 0 -40 29 -68 67 -63 60 7 30 108
-32 108 -12 0 -25 -3 -28 -7z"/>
<path d="M10950 1919 c-24 -40 -30 -59 -26 -83 11 -56 22 -64 50 -37 14 13 33
43 42 67 14 36 14 46 2 70 -20 42 -33 39 -68 -17z"/>
<path d="M10706 1933 c-3 -10 -8 -35 -12 -55 -6 -35 -4 -38 29 -54 19 -9 42
-14 51 -11 30 12 17 67 -27 115 -25 27 -34 28 -41 5z"/>
<path d="M2232 1923 c-18 -7 -42 -57 -42 -87 0 -48 38 -76 121 -91 95 -16 115
-27 220 -114 106 -90 184 -129 280 -143 88 -12 304 -5 574 20 187 17 189 17
204 44 13 23 13 34 3 73 -6 25 -12 56 -12 70 0 13 -3 26 -7 28 -13 7 -176 -12
-337 -38 -242 -40 -422 -30 -553 30 -33 15 -80 51 -126 98 -88 89 -150 117
-250 116 -34 0 -68 -3 -75 -6z"/>
<path d="M5242 1918 c-61 -9 -88 -22 -174 -82 -35 -24 -80 -51 -100 -59 -57
-24 -88 -60 -88 -102 0 -33 27 -75 49 -75 5 0 33 16 62 36 122 82 109 79 359
79 124 -1 317 -5 430 -9 175 -7 214 -6 267 7 67 18 157 59 169 78 3 6 -9 27
-29 47 -35 34 -37 35 -75 24 -64 -19 -148 -16 -164 7 -12 17 -28 19 -208 18
-139 0 -219 4 -280 16 -115 22 -156 24 -218 15z"/>
<path d="M3894 1896 c-104 -21 -257 -128 -268 -190 -6 -32 0 -86 11 -86 2 0
41 18 86 39 187 90 302 101 479 45 290 -91 407 -94 563 -13 113 58 109 52 94
143 -7 42 -16 76 -20 76 -3 0 -24 -7 -45 -16 -58 -25 -151 -43 -219 -43 -33
-1 -139 13 -235 29 -190 33 -336 38 -446 16z"/>
<path d="M6883 1856 c-18 -24 -33 -50 -33 -60 0 -20 79 -108 90 -101 5 3 6 23
3 44 -4 29 0 48 15 73 18 30 19 36 6 61 -20 38 -44 33 -81 -17z"/>
<path d="M9305 1892 c-11 -7 -37 -163 -29 -172 21 -21 72 85 73 153 1 27 -20
36 -44 19z"/>
<path d="M9397 1883 c-8 -10 -22 -44 -30 -76 -9 -33 -23 -67 -31 -76 -30 -33
-20 -44 30 -37 57 7 64 12 64 39 0 32 36 86 70 105 16 9 30 22 30 29 0 34
-105 46 -133 16z"/>
<path d="M10114 1891 c-30 -5 -58 -21 -103 -60 -33 -29 -61 -57 -61 -62 0 -14
62 -11 148 7 78 15 112 37 112 73 -1 39 -31 52 -96 42z"/>
<path d="M10247 1848 c-2 -29 -3 -55 -1 -57 8 -8 88 0 100 10 17 14 24 60 13
81 -7 13 -22 18 -58 18 l-48 0 -6 -52z"/>
<path d="M9712 1870 c-12 -15 -17 -38 -17 -80 0 -59 1 -60 28 -60 17 0 27 5
27 15 0 9 9 41 20 72 11 32 20 61 20 65 0 17 -61 7 -78 -12z"/>
<path d="M10407 1883 c-4 -3 -7 -28 -7 -54 0 -43 3 -49 24 -55 13 -3 37 -4 52
-2 25 3 29 8 32 36 5 48 -21 82 -62 82 -18 0 -36 -3 -39 -7z"/>
<path d="M9113 1854 c-3 -9 -1 -37 5 -61 13 -46 7 -68 -22 -93 -29 -23 -19
-40 24 -40 74 0 137 82 128 170 l-3 35 -63 3 c-51 2 -63 0 -69 -14z"/>
<path d="M10557 1863 c-3 -5 -8 -31 -12 -59 -6 -50 -6 -51 26 -64 29 -13 33
-12 50 9 34 42 21 79 -38 110 -12 6 -24 8 -26 4z"/>
<path d="M8967 1843 c-44 -12 -57 -19 -55 -32 2 -9 14 -18 28 -19 37 -6 50
-21 50 -57 0 -40 -36 -61 -74 -43 -33 15 -58 4 -54 -24 4 -28 34 -35 57 -14
12 11 28 14 53 10 44 -8 67 5 102 54 26 38 26 41 12 73 -8 19 -17 42 -20 52
-6 20 -21 20 -99 0z"/>
<path d="M10820 1835 c-5 -14 -7 -31 -4 -38 6 -16 57 -47 78 -47 26 0 20 57
-9 85 -31 32 -53 32 -65 0z"/>
<path d="M6660 1835 c-41 -7 -122 -17 -180 -24 -148 -15 -204 -35 -267 -97
-47 -44 -53 -55 -53 -91 0 -25 5 -43 13 -46 14 -5 116 14 177 34 19 6 114 14
210 18 159 7 180 10 233 34 31 14 60 33 63 41 6 17 -92 147 -109 145 -7 -1
-46 -7 -87 -14z"/>
<path d="M8165 1822 c-91 -56 -59 -173 55 -202 25 -6 92 -10 150 -8 100 3 105
4 108 25 2 12 17 33 33 47 16 14 29 29 29 34 0 6 -44 12 -100 14 l-99 3 -49
53 c-53 58 -77 64 -127 34z"/>
<path d="M7663 1802 c-51 -20 -63 -30 -63 -47 0 -30 36 -74 74 -90 26 -11 35
-11 66 5 19 10 48 32 63 48 l29 30 -44 41 c-24 22 -47 40 -53 40 -5 -1 -38
-12 -72 -27z"/>
<path d="M6993 1812 c-50 -32 6 -207 67 -207 25 0 25 1 22 75 -4 97 -8 107
-42 125 -33 17 -31 17 -47 7z"/>
<path d="M9497 1798 c-28 -26 -41 -66 -28 -87 7 -10 24 -12 76 -6 74 8 115 35
115 75 0 18 -4 20 -35 14 -25 -4 -43 -1 -60 10 -32 21 -39 20 -68 -6z"/>
<path d="M10660 1764 c-25 -58 -25 -61 1 -74 26 -14 62 7 84 50 15 30 15 30
-17 50 -18 11 -36 20 -40 20 -4 0 -16 -21 -28 -46z"/>
<path d="M8866 1782 c-10 -17 7 -52 28 -57 54 -12 61 -10 64 13 2 16 -2 22
-15 22 -10 0 -27 7 -37 15 -22 17 -33 19 -40 7z"/>
<path d="M7879 1730 c-35 -28 -86 -65 -112 -82 -34 -22 -44 -34 -35 -40 7 -4
70 -8 141 -8 138 0 138 0 116 57 -6 15 -14 48 -17 72 -4 24 -12 46 -18 48 -7
2 -40 -19 -75 -47z"/>
<path d="M7463 1755 c-28 -12 -33 -19 -33 -48 0 -21 12 -51 31 -80 27 -42 35
-47 67 -47 56 0 112 19 112 37 0 8 -15 32 -32 53 -18 20 -41 51 -50 68 -19 36
-43 40 -95 17z"/>
<path d="M10755 1705 c-30 -44 -35 -59 -26 -68 15 -15 76 18 105 57 19 25 19
26 1 46 -10 11 -23 20 -30 20 -6 0 -29 -25 -50 -55z"/>
<path d="M7107 1728 c-8 -29 6 -91 27 -123 14 -21 24 -25 67 -25 37 0 49 3 45
13 -2 6 -14 42 -26 79 -16 50 -27 67 -43 72 -44 12 -65 7 -70 -16z"/>
<path d="M10165 1740 c-193 -8 -344 -23 -525 -50 -69 -10 -186 -21 -260 -25
-74 -3 -153 -10 -175 -15 -22 -5 -95 -10 -162 -10 -98 0 -123 -3 -123 -14 0
-7 14 -16 31 -20 43 -8 208 -6 304 4 44 5 175 14 290 20 116 6 278 18 360 26
83 9 212 19 288 23 106 6 142 11 154 24 15 15 12 49 -4 45 -4 0 -84 -4 -178
-8z"/>
<path d="M7273 1733 c-30 -6 -29 -31 2 -93 30 -60 54 -74 112 -67 55 6 58 9
38 41 -9 13 -20 46 -23 73 l-7 48 -50 1 c-28 1 -60 0 -72 -3z"/>
<path d="M8754 1725 c-9 -22 23 -65 47 -65 30 0 35 28 9 56 -27 27 -48 31 -56
9z"/>
<path d="M8565 1690 c-66 -68 -5 -82 71 -16 41 36 39 56 -5 56 -18 0 -39 -13
-66 -40z"/>
<path d="M2230 1688 c-108 -55 -58 -158 110 -229 30 -12 87 -42 125 -66 137
-86 154 -91 330 -104 181 -14 674 1 755 22 69 18 78 31 47 68 -14 17 -31 47
-38 66 -15 40 -16 41 -175 26 -295 -28 -440 -34 -545 -23 -150 16 -218 49
-352 169 -105 94 -173 113 -257 71z"/>
<path d="M3854 1686 c-96 -31 -168 -72 -214 -122 -47 -51 -59 -88 -39 -122 27
-47 42 -49 96 -9 60 44 186 95 256 103 57 7 124 -8 266 -57 163 -56 295 -71
406 -44 58 14 248 94 267 113 5 5 0 20 -12 35 -12 15 -24 43 -27 62 -3 19 -11
35 -18 35 -7 0 -48 -17 -91 -37 -70 -33 -89 -38 -174 -41 -77 -3 -115 1 -202
22 -59 14 -123 32 -143 40 -55 23 -177 46 -242 46 -32 -1 -90 -11 -129 -24z"/>
<path d="M10855 1681 c-10 -17 -39 -42 -62 -57 -54 -34 -51 -50 8 -46 52 4
122 40 127 65 4 22 -23 67 -41 67 -6 0 -21 -13 -32 -29z"/>
<path d="M6035 1683 c-46 -11 -119 -14 -305 -12 -568 7 -579 7 -638 -20 -103
-47 -175 -159 -141 -220 23 -41 60 -39 137 8 37 22 80 45 97 51 20 8 154 10
420 9 380 -2 394 -1 458 20 37 13 67 26 67 29 0 4 3 40 6 80 5 83 9 81 -101
55z"/>
<path d="M8666 1671 c-39 -41 -30 -61 26 -54 24 3 49 12 57 19 13 12 12 17 -9
39 -30 32 -40 31 -74 -4z"/>
<path d="M6839 1654 c-49 -34 -150 -61 -256 -69 -138 -10 -280 -44 -332 -80
-46 -31 -83 -87 -74 -111 7 -19 50 -41 103 -53 42 -9 44 -8 77 29 48 53 82 64
284 95 155 24 327 68 369 96 12 7 3 20 -45 64 -33 30 -67 54 -75 54 -8 0 -31
-11 -51 -25z"/>
<path d="M140 1650 c0 -5 7 -10 16 -10 8 0 12 5 9 10 -3 6 -10 10 -16 10 -5 0
-9 -4 -9 -10z"/>
<path d="M10075 1600 c-49 -51 -160 -106 -240 -121 -33 -6 -105 -9 -161 -7
-108 4 -129 12 -209 82 -42 37 -55 39 -161 31 -68 -5 -94 -11 -94 -20 0 -9 20
-16 58 -20 99 -12 134 -25 223 -87 l87 -60 143 10 c164 12 233 31 315 87 62
43 127 111 121 128 -8 27 -43 17 -82 -23z"/>
<path d="M196 1623 c-3 -4 -6 -13 -6 -21 0 -10 7 -12 26 -8 20 5 27 3 31 -14
5 -20 18 -26 27 -12 2 4 2 13 -2 19 -10 15 -68 43 -76 36z"/>
<path d="M9974 1620 c-12 -5 -25 -13 -29 -19 -3 -6 -25 -21 -47 -32 -37 -19
-55 -20 -182 -17 -125 3 -145 5 -177 26 -52 32 -64 27 -34 -12 38 -50 92 -68
200 -68 122 0 240 37 299 93 39 37 40 38 16 38 -14 0 -35 -4 -46 -9z"/>
<path d="M10207 1624 c-9 -10 2 -24 19 -24 8 0 14 7 14 15 0 15 -21 21 -33 9z"/>
<path d="M9572 1598 c6 -19 147 -31 231 -21 41 5 72 13 75 21 3 9 -32 12 -153
12 -121 0 -156 -3 -153 -12z"/>
<path d="M135 1590 c3 -5 8 -10 11 -10 2 0 4 5 4 10 0 6 -5 10 -11 10 -5 0 -7
-4 -4 -10z"/>
<path d="M10903 1579 c-18 -11 -57 -23 -88 -26 -50 -5 -55 -8 -55 -30 0 -62
34 -77 105 -44 55 25 77 52 73 90 l-3 30 -32 -20z"/>
<path d="M8460 1570 c-12 -8 -12 -10 3 -16 24 -9 129 5 122 17 -8 12 -106 11
-125 -1z"/>
<path d="M7675 1559 c-33 -5 -132 -13 -221 -17 -179 -9 -204 -18 -288 -99
l-40 -38 45 -8 c83 -15 185 1 339 53 152 51 256 70 391 70 79 0 109 6 109 20
0 17 -253 31 -335 19z"/>
<path d="M8858 1564 c-6 -6 -102 -14 -464 -39 -115 -8 -259 -19 -320 -24 -60
-5 -156 -13 -214 -16 -152 -9 -275 -32 -296 -57 -18 -19 -17 -19 216 -15 483
9 795 26 1020 57 357 50 380 54 380 65 0 7 -29 17 -64 23 -65 12 -248 17 -258
6z"/>
<path d="M10665 1546 c-13 -19 -14 -29 -5 -45 11 -21 40 -41 59 -41 14 0 14
50 1 84 -12 33 -35 33 -55 2z"/>
<path d="M6980 1521 c-93 -44 -169 -61 -365 -86 -143 -18 -204 -39 -231 -80
-29 -45 -12 -50 174 -49 164 0 169 1 322 43 85 23 173 53 196 66 63 37 141
111 129 124 -5 5 -39 13 -75 16 -61 6 -70 3 -150 -34z"/>
<path d="M6145 1521 c-105 -60 -122 -62 -550 -60 -439 2 -402 8 -532 -79 -46
-30 -53 -39 -53 -67 0 -55 20 -62 108 -36 134 40 230 47 414 30 90 -8 226 -14
304 -14 l141 0 69 35 c63 32 72 41 116 113 45 74 58 107 41 107 -5 0 -31 -13
-58 -29z"/>
<path d="M10205 1543 c-48 -10 -88 -26 -115 -50 -38 -32 -38 -43 1 -43 43 0
95 27 120 62 24 33 23 36 -6 31z"/>
<path d="M3840 1477 c-85 -34 -113 -52 -159 -102 -50 -55 -51 -79 -2 -112 42
-29 70 -29 124 -1 62 32 203 36 322 9 266 -60 539 -80 643 -48 63 19 155 67
197 102 28 24 29 26 11 38 -54 35 -66 51 -72 88 -8 49 -16 54 -55 33 -18 -9
-84 -34 -148 -56 -175 -59 -188 -58 -556 42 -136 37 -225 39 -305 7z"/>
<path d="M9229 1495 c-3 -2 -70 -12 -150 -20 -79 -9 -207 -24 -284 -35 -301
-42 -627 -60 -1081 -60 -187 0 -301 -5 -368 -15 -62 -9 -132 -12 -190 -9 -83
5 -108 2 -276 -37 -205 -47 -255 -50 -607 -34 -118 5 -186 3 -250 -6 -97 -15
-315 -17 -580 -4 -168 8 -175 7 -288 -20 -120 -29 -128 -28 -177 7 -13 10 -26
7 -70 -15 -29 -15 -60 -27 -68 -27 -13 0 -13 -1 0 -10 14 -9 333 -8 1545 5
389 4 677 19 795 40 47 8 132 29 190 47 119 37 42 35 760 23 270 -5 452 -3
545 4 77 7 253 16 390 21 266 11 440 29 439 45 -1 19 -85 75 -136 90 -49 14
-129 20 -139 10z"/>
<path d="M6126 1341 c-17 -18 -17 -21 -3 -27 27 -10 52 0 52 21 0 27 -27 30
-49 6z"/>
<path d="M3888 1261 c-44 -9 -91 -38 -83 -51 8 -12 332 -12 360 0 18 7 16 10
-18 24 -60 26 -193 39 -259 27z"/>
<path d="M10776 2827 c-11 -8 -16 -19 -12 -25 8 -13 119 -15 151 -3 19 8 19 8
0 18 -37 20 -118 25 -139 10z"/>
<path d="M10718 2753 c-10 -11 -18 -32 -18 -47 0 -26 2 -28 28 -21 15 4 87 9
160 12 120 5 132 7 132 24 0 25 -53 39 -180 46 -96 5 -107 4 -122 -14z"/>
<path d="M11056 2755 c-3 -9 -6 -54 -6 -100 0 -63 4 -88 16 -99 43 -44 66 1
62 123 l-3 86 -31 3 c-22 2 -33 -2 -38 -13z"/>
<path d="M10832 2670 c-110 -12 -122 -16 -122 -46 0 -35 19 -39 110 -20 44 9
107 16 140 16 53 0 60 2 60 19 0 11 -5 23 -11 27 -17 10 -96 12 -177 4z"/>
<path d="M10853 2590 c-72 -15 -103 -40 -67 -54 28 -11 52 -7 99 16 69 34 51
54 -32 38z"/>
<path d="M10944 2551 c-53 -24 -64 -41 -27 -41 54 0 103 20 103 40 0 25 -22
25 -76 1z"/>
<path d="M3800 2723 c-5 -76 -1 -166 6 -172 5 -5 27 -6 49 -2 l40 6 3 88 3 87
-51 0 c-27 0 -50 -3 -50 -7z"/>
<path d="M3571 2696 c-18 -21 -9 -91 15 -117 26 -29 93 -21 116 15 14 20 8 63
-10 86 -24 29 -102 40 -121 16z"/>
<path d="M3503 2680 c-1 -11 2 -18 8 -15 11 7 12 35 1 35 -4 0 -8 -9 -9 -20z"/>
<path d="M3456 2651 c-20 -31 34 -130 85 -156 17 -9 40 -15 52 -13 19 3 18 6
-15 25 -22 13 -49 42 -67 75 -48 86 -47 83 -55 69z"/>
<path d="M5105 2750 c-4 -6 20 -10 65 -10 45 0 69 4 65 10 -3 6 -33 10 -65 10
-32 0 -62 -4 -65 -10z"/>
<path d="M5488 2755 c-9 -9 4 -159 14 -172 6 -7 21 -13 34 -13 23 0 24 3 24
64 0 102 -8 126 -40 126 -14 0 -29 -2 -32 -5z"/>
<path d="M5077 2703 c-14 -13 -7 -43 10 -43 30 0 238 23 243 27 2 2 -2 8 -10
13 -17 11 -233 14 -243 3z"/>
<path d="M5200 2643 c-82 -4 -120 -17 -120 -43 0 -39 25 -44 113 -25 125 26
202 50 202 60 0 11 -73 14 -195 8z"/>
<path d="M5211 2552 c-57 -22 -65 -42 -17 -42 47 0 109 26 104 42 -7 19 -38
19 -87 0z"/>
<path d="M4453 2719 c-18 -5 -35 -14 -38 -19 -3 -5 6 -32 20 -59 15 -31 25
-67 25 -94 0 -56 17 -105 40 -117 33 -17 88 -12 111 11 20 20 21 29 16 93 -8
92 -33 173 -57 186 -22 12 -73 12 -117 -1z"/>
<path d="M4124 2668 c7 -33 37 -72 71 -90 10 -6 57 -20 105 -30 47 -11 95 -22
108 -25 20 -5 22 -2 22 35 0 67 -28 88 -136 106 -51 9 -104 20 -118 26 -49 18
-59 14 -52 -22z"/>
<path d="M1394 1584 c-21 -15 -41 -28 -43 -30 -2 -2 10 -19 28 -39 43 -49 67
-101 80 -170 6 -32 17 -62 24 -67 39 -25 107 14 107 62 0 39 -27 162 -44 204
-28 68 -87 84 -152 40z"/>
<path d="M1570 1581 c0 -15 28 -33 40 -26 8 5 8 11 -1 21 -13 15 -39 19 -39 5z"/>
<path d="M1100 1542 c0 -27 55 -99 88 -116 15 -8 54 -24 87 -35 32 -12 76 -34
96 -51 53 -42 63 -39 56 16 -5 49 -44 114 -87 145 -14 10 -69 28 -124 39 -119
24 -116 24 -116 2z"/>
<path d="M1650 1535 c0 -9 9 -15 25 -15 16 0 25 6 25 15 0 9 -9 15 -25 15 -16
0 -25 -6 -25 -15z"/>
<path d="M1684 1433 c1 -44 5 -58 16 -58 8 0 15 6 14 13 -1 6 -2 32 -2 57 -2
31 -6 45 -16 45 -10 0 -13 -14 -12 -57z"/>
<path d="M1630 1384 c0 -14 4 -23 10 -19 6 3 10 15 10 26 0 10 -4 19 -10 19
-5 0 -10 -12 -10 -26z"/>
<path d="M770 1533 c-36 -8 -69 -18 -73 -23 -5 -4 8 -17 27 -30 63 -38 59
-110 -7 -164 -37 -30 -40 -30 -135 -28 -53 1 -109 7 -123 13 -33 13 -49 47
-49 104 0 35 6 49 27 70 15 14 31 25 35 25 11 0 10 28 -2 35 -14 9 -65 -21
-90 -52 -17 -22 -21 -37 -17 -72 6 -58 32 -90 97 -123 63 -33 116 -36 235 -12
44 8 103 14 130 12 l50 -3 1 133 c1 152 10 142 -106 115z"/>
<path d="M450 1445 c-7 -8 -9 -23 -5 -32 6 -17 7 -17 21 1 26 36 12 64 -16 31z"/>
<path d="M514 1433 c-24 -17 -24 -44 1 -69 20 -20 34 -24 85 -24 71 0 82 13
53 62 -17 30 -24 33 -74 36 -29 1 -59 -1 -65 -5z"/>
<path d="M2426 5586 c51 -23 60 -82 18 -121 l-25 -24 27 -18 c42 -27 150 -30
191 -4 65 41 55 111 -22 153 -43 24 -61 28 -135 27 -80 0 -83 -1 -54 -13z"/>
<path d="M3085 5543 c13 -103 34 -137 95 -147 73 -13 120 45 120 147 l0 57
-111 0 -111 0 7 -57z"/>
<path d="M3740 5551 c0 -56 30 -108 74 -129 65 -32 145 43 146 136 l0 42 -110
0 -110 0 0 -49z"/>
<path d="M5570 5590 c43 -30 50 -31 50 -10 0 16 -6 20 -32 20 -26 0 -30 -3
-18 -10z"/>
<path d="M6742 5530 c4 -83 27 -120 81 -133 73 -18 121 33 133 141 l7 62 -113
0 -112 0 4 -70z"/>
<path d="M5510 5533 c-41 -15 -54 -78 -22 -106 26 -24 87 -22 112 3 52 52 -16
129 -90 103z"/>
</g>
</svg>
